<?xml version="1.0" standalone="no"?>
<!DOCTYPE svg PUBLIC "-//W3C//DTD SVG 1.1//EN" "http://www.w3.org/Graphics/SVG/1.1/DTD/svg11.dtd" >
<svg xmlns="http://www.w3.org/2000/svg">
<metadata></metadata>
<defs>
<font id="ATRotisSansSerif-BoldRegular" horiz-adv-x="1024" >
<font-face units-per-em="2048" ascent="1638" descent="-410" />
<missing-glyph horiz-adv-x="606" />
<glyph horiz-adv-x="0" />
<glyph horiz-adv-x="2048" />
<glyph unicode=" "  horiz-adv-x="606" />
<glyph unicode="&#x09;" horiz-adv-x="606" />
<glyph unicode="&#xa0;" horiz-adv-x="606" />
<glyph unicode="!" horiz-adv-x="606" d="M256 0v248h248v-248h-248zM274 1413h211l-16 -1010h-178z" />
<glyph unicode="&#x22;" horiz-adv-x="833" d="M127 1413h238l-41 -467h-158zM471 1413h238l-41 -467h-156z" />
<glyph unicode="#" horiz-adv-x="1214" d="M127 387l39 152h139l57 219h-141l39 151h141l101 389h168l-101 -389h201l100 389h168l-100 -389h145l-39 -151h-145l-57 -219h147l-39 -152h-147l-98 -387h-168l98 387h-201l-98 -387h-168l98 387h-139zM473 539h201l57 219h-201z" />
<glyph unicode="$" horiz-adv-x="1175" d="M106 297h256q0 -86 40 -137t126 -60v549q-195 59 -297 133t-102 240q0 186 128 267t271 81v166h123v-166q178 0 287 -100.5t109 -220.5h-256q0 78 -26 127t-114 71v-495q242 -90 337 -148.5t95 -261.5q0 -205 -119.5 -276.5t-312.5 -88.5v-186h-123v186q-207 0 -306 81 t-116 239zM385 1047q0 -115 43 -168.5t100 -79.5v448q-74 -14 -108.5 -68.5t-34.5 -131.5zM651 100q176 23 176 224q0 119 -45 179t-131 95v-498z" />
<glyph unicode="%" horiz-adv-x="1744" d="M55 862q0 205 72 332t252 127q178 0 252 -128t74 -331t-74 -329.5t-252 -126.5t-251 126.5t-73 329.5zM203 864q0 -207 47 -281.5t129 -74.5q104 0 141 98.5t37 257.5q0 156 -37 255.5t-141 99.5q-102 0 -139 -99.5t-37 -255.5zM553 0l479 1298h160l-479 -1298h-160z M1042 436q0 205 72 331t252 126t253 -126t73 -331q0 -203 -74 -331t-252 -128t-251 128t-73 331zM1190 436q0 -207 47 -281.5t129 -74.5q104 0 141 98t37 258q0 156 -37 255.5t-141 99.5q-102 0 -139 -99.5t-37 -255.5z" />
<glyph unicode="&#x26;" horiz-adv-x="1366" d="M106 360q0 176 77 252t194 103q-115 43 -181.5 100t-66.5 205q0 182 118 263t292 81q119 0 219 -35v-145q-51 23 -95.5 37t-103.5 14q-98 0 -151.5 -65.5t-53.5 -161.5q0 -121 65.5 -169t127.5 -48h377v387l184 116v-503h250v-144h-250v-342q0 -78 28.5 -131t120.5 -53 q49 0 101 14v-143q-74 -14 -146 -15q-150 0 -219 57.5t-69 192.5v420h-377q-98 0 -156.5 -72.5t-58.5 -203.5q0 -125 68.5 -187.5t181.5 -62.5q57 0 102 9t86 24v-148q-98 -29 -217 -29q-205 0 -326 93.5t-121 289.5z" />
<glyph unicode="'" horiz-adv-x="493" d="M129 1413h238l-41 -467h-158z" />
<glyph unicode="(" horiz-adv-x="681" d="M131 614q0 315 24.5 491.5t132 297.5t349.5 145v-112q-133 -31 -194.5 -141.5t-77 -271.5t-15.5 -409q0 -260 14.5 -411.5t76 -265t196.5 -144.5v-112q-242 23 -349.5 140.5t-132 290.5t-24.5 502z" />
<glyph unicode=")" horiz-adv-x="681" d="M45 -207q135 31 195.5 140.5t75 261t14.5 419.5q0 381 -56.5 586t-228.5 236v112q240 -23 347.5 -141.5t132 -291.5t24.5 -501q0 -315 -24.5 -491t-132 -297t-347.5 -145v112z" />
<glyph unicode="*" horiz-adv-x="645" d="M12 1057v143h142l69 -20l4 4l-53 51l-72 129l125 72l74 -129l21 -72l20 72l74 129l123 -72l-72 -129l-51 -51l4 -4l72 20h141v-143h-141l-72 20l-4 -4l51 -51l72 -125l-123 -72l-74 123l-16 74l-25 -74l-74 -123l-125 72l72 125l53 51l-4 4l-69 -20h-142z" />
<glyph unicode="+" horiz-adv-x="1214" d="M121 430v182h387v385h199v-385h389v-182h-389v-430h-199v430h-387z" />
<glyph unicode="," horiz-adv-x="454" d="M117 -190l30 473h226l-86 -473h-170z" />
<glyph unicode="-" horiz-adv-x="948" d="M94 418v219h762v-219h-762z" />
<glyph unicode="." horiz-adv-x="493" d="M104 0v283h283v-283h-283z" />
<glyph unicode="/" horiz-adv-x="645" d="M-20 -279l469 1838h217l-469 -1838h-217z" />
<glyph unicode="0" horiz-adv-x="1099" d="M76 649q0 299 105.5 485.5t367.5 186.5q260 0 368.5 -188.5t108.5 -483.5q0 -297 -107.5 -484.5t-369.5 -187.5q-258 0 -365.5 188.5t-107.5 483.5zM281 649q0 -303 70.5 -415.5t197.5 -112.5q160 0 216 148.5t56 379.5q0 299 -73.5 414t-198.5 115q-158 0 -213 -152 t-55 -377z" />
<glyph unicode="1" horiz-adv-x="1099" d="M250 958v179l291 161h172v-1298h-205v1114z" />
<glyph unicode="2" horiz-adv-x="1099" d="M109 0v150q113 90 254 233t253.5 309t112.5 289q0 88 -50 142.5t-149 54.5q-96 0 -145 -51.5t-49 -127.5h-225q14 131 107 226.5t314 95.5q172 0 287 -94t115 -260q0 -238 -137.5 -396.5t-442.5 -427.5h590v-143h-835z" />
<glyph unicode="3" horiz-adv-x="1099" d="M86 283h231q0 -61 45.5 -111.5t145.5 -50.5q117 0 172 57.5t55 181.5q0 129 -63.5 188.5t-175.5 59.5h-54v144h54q102 0 158.5 58t56.5 155q0 104 -44 158.5t-145 54.5q-100 0 -138 -43t-46 -113h-225q0 123 110.5 211t308.5 88q166 0 274.5 -87t108.5 -241 q0 -137 -57 -209.5t-151 -97.5q104 -29 168.5 -103.5t64.5 -217.5q0 -193 -107.5 -290.5t-312.5 -97.5q-233 0 -333.5 95.5t-100.5 210.5z" />
<glyph unicode="4" horiz-adv-x="1099" d="M74 338v127l536 833h226v-817h223v-143h-223v-338h-205v338h-557zM262 481h369v602z" />
<glyph unicode="5" horiz-adv-x="1099" d="M133 285h225q0 -55 49.5 -109.5t157.5 -54.5q125 0 185.5 64.5t60.5 217.5q0 104 -54.5 176t-174.5 72q-82 0 -123 -25.5t-68 -66.5h-203l37 739h695v-143h-508l-19 -424q41 31 94.5 47.5t130.5 16.5q188 0 293 -113t105 -305q0 -197 -127 -298.5t-322 -101.5 q-233 0 -333.5 95.5t-100.5 212.5z" />
<glyph unicode="6" horiz-adv-x="1099" d="M139 668q0 305 93.5 479t361.5 174q213 0 304 -95.5t91 -207.5h-225q0 53 -40 106.5t-132 53.5q-115 0 -181.5 -102.5t-66.5 -350.5v-72q53 61 122 97t189 36q182 0 271.5 -110.5t89.5 -296.5q0 -190 -111.5 -296t-308.5 -106q-270 0 -363.5 176.5t-93.5 514.5zM369 383 q0 -109 56 -185.5t157 -76.5q127 0 178 70.5t51 191.5t-51 190.5t-170 69.5q-104 0 -162.5 -70.5t-58.5 -189.5z" />
<glyph unicode="7" horiz-adv-x="1099" d="M139 1155v143h815v-155l-479 -1143h-219l479 1155h-596z" />
<glyph unicode="8" horiz-adv-x="1099" d="M119 350q0 150 66.5 221.5t164.5 100.5q-82 31 -145.5 100.5t-63.5 212.5q0 168 113 252t297 84q182 0 296 -84t114 -252q0 -145 -63.5 -216t-145.5 -93q96 -35 163.5 -105.5t67.5 -220.5q0 -182 -101.5 -277.5t-330.5 -95.5q-225 0 -328.5 97.5t-103.5 275.5zM324 360 q0 -239 227 -239t227 239q0 117 -54 181.5t-173 64.5q-227 0 -227 -246zM346 971q0 -221 205 -221t205 221q0 98 -52.5 152.5t-152.5 54.5q-98 0 -151.5 -55.5t-53.5 -151.5z" />
<glyph unicode="9" horiz-adv-x="1099" d="M94 922q0 190 112.5 294.5t309.5 104.5q270 0 363.5 -176t93.5 -514q0 -303 -95.5 -478.5t-361.5 -175.5q-211 0 -303 96.5t-92 207.5h227q0 -51 40 -105.5t130 -54.5q117 0 183.5 102.5t66.5 349.5v72q-51 -57 -122 -94t-189 -37q-182 0 -272.5 111.5t-90.5 296.5z M297 918q0 -119 52 -190t171 -71q109 0 168.5 70t59.5 188q0 111 -56.5 187t-163.5 76q-129 0 -180 -70t-51 -190z" />
<glyph unicode=":" horiz-adv-x="606" d="M238 0v283h282v-283h-282zM238 692v283h282v-283h-282z" />
<glyph unicode=";" horiz-adv-x="569" d="M223 -190l23 473h256l-109 -473h-170zM225 692v283h283v-283h-283z" />
<glyph unicode="&#x3c;" horiz-adv-x="1214" d="M119 406v186l977 403v-186l-789 -311l789 -312v-186z" />
<glyph unicode="=" horiz-adv-x="1214" d="M119 248v182h977v-182h-977zM119 612v183h977v-183h-977z" />
<glyph unicode="&#x3e;" horiz-adv-x="1214" d="M119 0v186l790 312l-790 311v186l977 -403v-186z" />
<glyph unicode="?" horiz-adv-x="909" d="M154 1204v193q84 18 162.5 28.5t129.5 10.5q188 0 307 -83t119 -237q0 -111 -39.5 -164t-142.5 -155l-86 -86q-68 -68 -94.5 -104t-26.5 -148v-56h-190v97q0 129 27.5 170t103.5 118l121 123q70 70 95.5 105t25.5 92q0 86 -60.5 129t-161.5 43q-74 0 -155.5 -23.5 t-134.5 -52.5zM258 0v248h254v-248h-254z" />
<glyph unicode="@" horiz-adv-x="2048" d="M195 406q0 365 274 639t645 274q315 0 527 -186.5t212 -477.5q0 -268 -177 -461.5t-398 -193.5q-84 0 -116 46t-32 99q-53 -57 -109 -95t-157 -38q-119 0 -195.5 77t-76.5 216q0 231 167 450.5t363 219.5q104 0 155.5 -47t82.5 -105l45 111h178l-172 -424 q-37 -98 -81 -211t-44 -137q0 -55 62 -56q133 0 272 155t139 394q0 256 -185 407.5t-454 151.5q-297 0 -540.5 -251.5t-243.5 -554.5q0 -258 193.5 -423t519.5 -165q184 0 324 52t274 157l55 -47q-96 -106 -292 -180t-370 -74q-369 0 -607 189t-238 489zM756 233 q0 -70 37.5 -103.5t103.5 -33.5q84 0 130 48.5t109.5 150.5t110.5 256t47 213q0 51 -33.5 91t-93.5 40q-137 0 -274 -247t-137 -415z" />
<glyph unicode="A" horiz-adv-x="1251" d="M18 0l482 1413h252l483 -1413h-217l-139 403h-506l-137 -403h-218zM420 567h403l-194 658z" />
<glyph unicode="B" horiz-adv-x="1099" d="M164 0v1413h407q141 0 255 -73.5t114 -262.5q0 -119 -52 -199.5t-167 -123.5q111 -23 199 -105t88 -262q0 -229 -134.5 -308t-318.5 -79h-391zM369 164h157q133 0 205 67.5t72 174.5q0 121 -75 189.5t-222 68.5h-137v-500zM369 827h129q98 0 167.5 44t69.5 169 q0 133 -67.5 171t-182.5 38h-116v-422z" />
<glyph unicode="C" horiz-adv-x="1099" d="M94 723q0 317 123 515t412 198q215 0 334.5 -112t119.5 -298h-237q0 92 -46 169t-177 77q-176 0 -240 -154.5t-64 -361.5q0 -293 85 -454t294 -161q111 0 179.5 31t150.5 80v-191q-66 -29 -165 -56.5t-206 -27.5q-254 0 -408.5 177.5t-154.5 568.5z" />
<glyph unicode="D" horiz-adv-x="1214" d="M164 0v1413h362q315 0 455.5 -173t140.5 -529q0 -408 -156.5 -559.5t-439.5 -151.5h-362zM369 164h120q207 0 307.5 114.5t100.5 428.5q0 319 -98.5 430.5t-311.5 111.5h-118v-1085z" />
<glyph unicode="E" d="M164 0v1413h780v-164h-575v-432h546v-164h-546v-489h594v-164h-799z" />
<glyph unicode="F" horiz-adv-x="948" d="M164 0v1413h758v-164h-553v-432h524v-164h-524v-653h-205z" />
<glyph unicode="G" horiz-adv-x="1251" d="M94 750q0 313 134 499.5t421 186.5q205 0 338 -102.5t133 -299.5h-227q0 100 -60.5 169t-185.5 69q-182 0 -255 -146.5t-73 -375.5q0 -344 96.5 -476.5t268.5 -132.5q92 0 158.5 17.5t81.5 38.5v454h-301v164h505v-704q-55 -43 -172.5 -88.5t-265.5 -45.5 q-285 0 -440.5 187.5t-155.5 585.5z" />
<glyph unicode="H" horiz-adv-x="1290" d="M164 0v1413h205v-596h555v596h204v-1413h-204v653h-555v-653h-205z" />
<glyph unicode="I" horiz-adv-x="530" d="M164 0v1413h205v-1413h-205z" />
<glyph unicode="J" horiz-adv-x="757" d="M0 4v176q63 -20 103 -29.5t100 -9.5q139 0 175 61.5t36 172.5v1038h204v-1067q0 -182 -83.5 -275.5t-339.5 -93.5q-68 0 -96.5 4.5t-98.5 22.5z" />
<glyph unicode="K" horiz-adv-x="1138" d="M164 0v1413h205v-629l483 629h246l-518 -674l559 -739h-248l-518 686l-4 -686h-205z" />
<glyph unicode="L" horiz-adv-x="909" d="M164 0v1413h205v-1249h542v-164h-747z" />
<glyph unicode="M" horiz-adv-x="1705" d="M162 0v1413h289l401 -1157l405 1157h287v-1413h-184v1171l-410 -1171h-194l-406 1171l-4 -1171h-184z" />
<glyph unicode="N" horiz-adv-x="1327" d="M164 0v1413h256l557 -1106l4 1106h184v-1413h-241l-572 1133l-4 -1133h-184z" />
<glyph unicode="O" horiz-adv-x="1290" d="M94 707q0 326 125 527.5t426 201.5t427 -203t126 -526q0 -328 -125 -529t-428 -201q-301 0 -426 201t-125 529zM319 707q0 -307 89.5 -436.5t236.5 -129.5q145 0 236.5 130t91.5 436q0 303 -90 434t-238 131q-188 0 -257 -167t-69 -398z" />
<glyph unicode="P" d="M164 0v1413h340q215 0 355 -78t140 -323q0 -227 -143 -312.5t-305 -85.5h-182v-614h-205zM369 778h145q123 0 191.5 55.5t68.5 178.5q0 147 -73.5 192t-186.5 45h-145v-471z" />
<glyph unicode="Q" horiz-adv-x="1290" d="M94 707q0 328 119 528.5t408 200.5q299 0 424.5 -203t125.5 -526q0 -209 -55 -366t-108 -189l4 -5l262 17v-164h-645q-289 0 -412 204t-123 503zM319 707q0 -293 82.5 -418t219.5 -125q195 0 260 137t65 406q0 303 -90 434t-235 131q-135 0 -218.5 -130t-83.5 -435z" />
<glyph unicode="R" horiz-adv-x="1099" d="M162 0v1413h409q184 0 299 -88t115 -283q0 -152 -75.5 -227.5t-202.5 -105.5q129 -31 171 -100.5t72 -215.5l84 -393h-186l-86 313q-39 137 -79 216t-200 79h-116v-608h-205zM367 772h118q125 0 210 57.5t85 188.5q0 125 -62.5 178t-185.5 53h-165v-477z" />
<glyph unicode="S" d="M82 1071q0 180 130 272.5t339 92.5q98 0 175 -11.5t146 -29.5v-193q-113 35 -178 52.5t-153 17.5q-106 0 -170 -48t-64 -137q0 -86 72 -137t158 -100l139 -82q145 -84 221 -162t76 -227q0 -197 -140.5 -299.5t-369.5 -102.5q-94 0 -183.5 13.5t-175.5 42.5v213 q76 -43 171.5 -74t203.5 -31q115 0 192 50.5t77 158.5q0 96 -53.5 148.5t-176.5 124.5l-129 75q-199 115 -253 185.5t-54 187.5z" />
<glyph unicode="T" horiz-adv-x="909" d="M0 1249v164h909v-164h-352v-1249h-205v1249h-352z" />
<glyph unicode="U" horiz-adv-x="1251" d="M147 418v995h205v-956q0 -133 47 -224.5t224 -91.5q180 0 229 92.5t49 223.5v956h205v-995q0 -217 -132 -329t-349 -112t-347.5 111t-130.5 330z" />
<glyph unicode="V" horiz-adv-x="1138" d="M-35 1413h215l385 -1180l393 1180h216l-482 -1413h-254z" />
<glyph unicode="W" horiz-adv-x="1781" d="M55 1413h187l207 -1128l354 1128h180l348 -1128l211 1128h187l-259 -1413h-227l-348 1110l-348 -1110h-228z" />
<glyph unicode="X" horiz-adv-x="1138" d="M8 0l449 743l-406 670h225l291 -481l295 481h225l-405 -670l451 -743h-226l-334 551l-340 -551h-225z" />
<glyph unicode="Y" horiz-adv-x="1062" d="M-25 1413h226l329 -545l332 545h225l-454 -760v-653h-205v653z" />
<glyph unicode="Z" d="M41 0v166l672 1083h-637v164h874v-166l-667 -1083h700v-164h-942z" />
<glyph unicode="[" horiz-adv-x="681" d="M207 -279v1835h442v-143h-248v-1548h248v-144h-442z" />
<glyph unicode="\" horiz-adv-x="645" d="M-20 1559h217l469 -1838h-217z" />
<glyph unicode="]" horiz-adv-x="681" d="M33 -135h248v1548h-248v143h442v-1835h-442v144z" />
<glyph unicode="^" horiz-adv-x="872" d="M127 1061l242 352h129l247 -352h-163l-148 184l-141 -184h-166z" />
<glyph unicode="_" d="M0 -133h1024v-105h-1024v105z" />
<glyph unicode="`" horiz-adv-x="696" d="M90 1487h248l94 -342h-170z" />
<glyph unicode="a" horiz-adv-x="948" d="M88 240q0 176 153.5 247.5t379.5 71.5v170q-12 68 -51.5 96.5t-98.5 28.5q-78 0 -117 -43t-39 -106h-194q0 129 86 210.5t278 81.5q162 0 241 -78.5t79 -248.5v-670h-184v121q-29 -53 -93.5 -98.5t-162.5 -45.5q-133 0 -205 72t-72 191zM293 246q0 -53 31.5 -89t74.5 -36 q90 0 156 84t66 176v55h-37q-121 0 -206 -50t-85 -140z" />
<glyph unicode="b" horiz-adv-x="985" d="M131 403v1010h184v-571q29 57 93.5 106t164.5 49q184 0 258 -147.5t74 -372.5q0 -238 -95 -369t-300 -131q-238 0 -308.5 133.5t-70.5 292.5zM315 489q0 -164 33 -266t152 -102q111 0 155.5 102.5t44.5 259.5q0 145 -37.5 258t-140.5 113q-102 0 -154.5 -119t-52.5 -246z " />
<glyph unicode="c" horiz-adv-x="872" d="M80 522q0 217 102.5 346t313.5 129q188 0 268 -98t80 -242h-211q0 82 -30 139.5t-120 57.5q-92 0 -145 -79t-53 -218q0 -176 89 -306t298 -130q41 0 80 5t75 15v-127q-55 -16 -121.5 -26.5t-148.5 -10.5q-256 0 -366.5 162t-110.5 383z" />
<glyph unicode="d" d="M82 471q0 248 89 387t255 139q106 0 172 -49t88 -108l4 573h184v-1413h-184v150q-37 -86 -111.5 -129.5t-162.5 -43.5q-170 0 -252 134.5t-82 359.5zM287 487q0 -154 38.5 -260t153.5 -106q104 0 157.5 113.5t53.5 254.5q0 150 -50 257.5t-163 107.5q-102 0 -146 -98.5 t-44 -268.5z" />
<glyph unicode="e" horiz-adv-x="909" d="M82 535q0 272 126 367t271 95q172 0 262 -106.5t90 -284.5v-47h-565q0 -166 88 -302t271 -136q51 0 94 9t90 26v-146q-66 -14 -120 -23.5t-124 -9.5q-229 0 -356 137.5t-127 420.5zM274 682h373q0 63 -41 117.5t-137 54.5q-98 0 -146.5 -60.5t-48.5 -111.5z" />
<glyph unicode="f" horiz-adv-x="720" d="M51 831v144h176v112q0 348 373 349q74 0 107.5 -3t89.5 -16v-153q-41 12 -82 20t-113 8q-100 0 -145 -65.5t-45 -151.5v-100h290v-144h-290v-831h-185v831h-176z" />
<glyph unicode="g" d="M82 487q0 225 85 367.5t263 142.5q102 0 168 -52t88 -105l4 135h184v-1014q0 -209 -112.5 -304t-337.5 -95q-109 0 -168 9t-131 26v186q70 -35 137.5 -56.5t143.5 -21.5q184 0 234 89t50 220v152q-25 -59 -92.5 -112.5t-179.5 -53.5q-178 0 -257 137t-79 350zM287 492 q0 -133 39.5 -241t148.5 -108q106 0 160.5 115t54.5 252q0 135 -51 239.5t-162 104.5q-109 0 -149.5 -108.5t-40.5 -253.5z" />
<glyph unicode="h" horiz-adv-x="1062" d="M152 0v1413h184v-647q43 96 112.5 163.5t200.5 67.5q150 0 206 -98t56 -223v-676h-184v532q0 160 -20.5 220.5t-112.5 60.5q-109 0 -183.5 -123t-74.5 -276v-414h-184z" />
<glyph unicode="i" horiz-adv-x="530" d="M154 1204v209h221v-209h-221zM172 0v975h184v-975h-184z" />
<glyph unicode="j" horiz-adv-x="530" d="M-115 -289l74 -6q152 0 189.5 74t37.5 215v981h185v-1059q0 -195 -126 -274.5t-306 -79.5l-54 4v145zM168 1204v209h221v-209h-221z" />
<glyph unicode="k" horiz-adv-x="948" d="M152 0v1413h184v-827l340 389h231l-360 -426l395 -549h-231l-371 504l-4 -504h-184z" />
<glyph unicode="l" horiz-adv-x="530" d="M172 0v1413h184v-1413h-184z" />
<glyph unicode="m" horiz-adv-x="1554" d="M154 0v975h184v-195q37 90 99.5 153.5t176.5 63.5q117 0 175.5 -62.5t72.5 -143.5q49 109 123 157.5t158 48.5q152 0 208 -98t56 -223v-676h-184v532q0 129 -12.5 205t-123.5 76q-84 0 -149.5 -109.5t-65.5 -236.5v-467h-184v532q0 164 -19.5 222.5t-109.5 58.5 q-94 0 -157.5 -123t-63.5 -276v-414h-184z" />
<glyph unicode="n" horiz-adv-x="1062" d="M152 0v975h184v-209q43 96 112.5 163.5t200.5 67.5q150 0 206 -98t56 -223v-676h-184v532q0 160 -20.5 220.5t-112.5 60.5q-109 0 -183.5 -123t-74.5 -276v-414h-184z" />
<glyph unicode="o" d="M82 487q0 240 107.5 375t324.5 135q213 0 321.5 -135t108.5 -375t-107.5 -375t-322.5 -135t-323.5 136t-108.5 374zM287 487q0 -205 59 -285.5t168 -80.5q131 0 178 107.5t47 258.5q0 207 -59 287t-166 80q-135 0 -181 -106.5t-46 -260.5z" />
<glyph unicode="p" d="M152 -438v1413h184v-148q29 59 99.5 114.5t174.5 55.5q168 0 251 -136t83 -357q0 -248 -89 -387.5t-255 -139.5q-106 0 -170.5 50.5t-89.5 105.5l-4 -571h-184zM336 485q0 -150 50 -257t163 -107q102 0 146 98t44 268q0 154 -38.5 260.5t-155.5 106.5 q-102 0 -155.5 -114.5t-53.5 -254.5z" />
<glyph unicode="q" d="M82 504q0 221 82 357t252 136q113 0 180.5 -51t89.5 -106l4 135h184v-1413h-184v573q-29 -61 -92 -109.5t-172 -48.5q-164 0 -254 141.5t-90 385.5zM287 487q0 -168 44 -267t146 -99q113 0 163 107.5t50 256.5q0 139 -54 254t-157 115q-113 0 -152.5 -108.5t-39.5 -258.5 z" />
<glyph unicode="r" horiz-adv-x="681" d="M152 0v975h184v-197q33 84 105.5 151.5t199.5 67.5v-200q-141 0 -223 -86t-82 -297v-414h-184z" />
<glyph unicode="s" horiz-adv-x="757" d="M76 16v162q53 -23 124.5 -40t121.5 -17q80 0 139 28.5t59 96.5q0 37 -22.5 61.5t-132.5 95.5l-95 58q-96 59 -145 113.5t-49 150.5q0 131 94 201.5t252 70.5q57 0 115.5 -12t105.5 -22v-166q-59 27 -117.5 42t-105.5 15q-63 0 -111.5 -29.5t-48.5 -74.5q0 -35 23.5 -60.5 t117.5 -83.5l78 -45q119 -74 172.5 -127t53.5 -162q0 -147 -98.5 -221t-268.5 -74q-88 0 -143.5 10.5t-118.5 28.5z" />
<glyph unicode="t" horiz-adv-x="720" d="M57 831v144h174v229l185 115v-344h270v-144h-270v-520q0 -113 39 -151.5t116 -38.5q51 0 99 14v-143q-66 -14 -146 -15q-164 0 -228.5 62.5t-64.5 175.5v616h-174z" />
<glyph unicode="u" horiz-adv-x="1062" d="M141 299v676h185v-533q0 -129 12 -204.5t121 -75.5t183.5 123t74.5 276v414h184v-975h-184v209q-39 -92 -112 -162t-202 -70q-150 0 -206 98.5t-56 223.5z" />
<glyph unicode="v" horiz-adv-x="909" d="M8 975h205l254 -709l231 709h205l-338 -975h-188z" />
<glyph unicode="w" horiz-adv-x="1402" d="M84 975h178l154 -707l217 707h139l213 -707l158 707h178l-219 -975h-195l-202 676l-201 -676h-195z" />
<glyph unicode="x" horiz-adv-x="948" d="M20 0l351 514l-310 461h215l199 -299l199 299h215l-309 -461l350 -514h-215l-238 354l-241 -354h-216z" />
<glyph unicode="y" horiz-adv-x="909" d="M6 975h205l256 -705l233 705h205l-485 -1395h-180l137 414z" />
<glyph unicode="z" horiz-adv-x="796" d="M39 0v143l473 688h-442v144h665v-139l-473 -693h492v-143h-715z" />
<glyph unicode="{" horiz-adv-x="1138" d="M289 510v49q94 31 159.5 97.5t65.5 162.5q0 37 -11 89.5t-21.5 103.5t-17.5 99t-7 97q0 141 136 244.5t296 103.5v-51q-106 -25 -162.5 -104.5t-56.5 -173.5q0 -43 5 -91.5t10 -93.5t9 -89t4 -62q0 -150 -90 -224.5t-227 -131.5q131 -57 224 -136.5t93 -220.5 q0 -31 -2 -55.5t-10 -90t-12 -108.5t-4 -82q0 -98 55 -176t164 -102v-51q-160 0 -296 102t-136 246q0 57 3 82.5t17.5 95.5t25.5 126t11 85q0 92 -64.5 160.5t-160.5 99.5z" />
<glyph unicode="|" horiz-adv-x="681" d="M291 -377v2083h100v-2083h-100z" />
<glyph unicode="}" horiz-adv-x="1138" d="M256 -436q106 25 162.5 104.5t56.5 173.5q0 43 -5 91.5t-10 93.5t-9.5 89t-4.5 62q0 143 91.5 220t226.5 137q-133 55 -225.5 131.5t-92.5 224.5q0 31 2.5 55.5t10.5 90t12 108.5t4 82q0 98 -55 176t-164 102v51q160 0 296 -102t136 -246q0 -57 -9 -111.5t-17.5 -95 t-19.5 -97t-11 -85.5q0 -98 63.5 -163.5t161.5 -96.5v-49q-92 -29 -158.5 -99.5t-66.5 -160.5q0 -37 11 -89t21.5 -103.5t17.5 -99.5t7 -97q0 -141 -136 -244.5t-296 -103.5v51z" />
<glyph unicode="~" horiz-adv-x="1251" d="M135 319v179q0 94 42 153.5t134 59.5q47 0 97.5 -23.5t83.5 -40.5l311 -153q31 -16 59.5 -29.5t46.5 -13.5q16 0 26.5 15t10.5 32v168h172v-174q0 -86 -37 -152t-157 -66q-45 0 -79 13.5t-102 48.5l-305 149q-29 14 -52.5 26.5t-39.5 12.5q-25 0 -32 -29.5t-7 -88.5v-87 h-172z" />
<glyph unicode="&#xa1;" horiz-adv-x="606" d="M104 887v248h248v-248h-248zM123 -279l16 1010h178l17 -1010h-211z" />
<glyph unicode="&#xa2;" horiz-adv-x="985" d="M68 520q0 236 113.5 356.5t279.5 120.5v166h104v-166q156 -18 255.5 -106t99.5 -250h-211q0 94 -32 162.5t-112 87.5v-791q23 -6 44.5 -10t43.5 -4q76 0 131.5 13.5t106.5 35.5v-96q-29 -16 -120 -39t-183 -23h-23v-200h-104v200q-166 25 -279.5 149t-113.5 394zM272 547 q0 -141 47.5 -235.5t141.5 -155.5v739q-98 -18 -143.5 -116.5t-45.5 -231.5z" />
<glyph unicode="&#xa3;" horiz-adv-x="948" d="M61 604v133h146v310q0 164 100.5 240.5t270.5 76.5q197 0 293 -101.5t96 -207.5h-219q0 57 -40 111.5t-135 54.5q-98 0 -137 -59.5t-39 -162.5v-262h265v-133h-265v-440h527v-164h-717v604h-146z" />
<glyph unicode="&#xa4;" d="M27 1139l65 63l137 -135q63 45 125 70.5t160 25.5t156.5 -24.5t126.5 -71.5l137 135l65 -63l-139 -138q41 -55 68.5 -117.5t27.5 -168.5q0 -98 -28.5 -162t-67.5 -117l137 -137l-63 -63l-137 137q-78 -53 -145.5 -76t-137.5 -23q-100 0 -155.5 25t-129.5 74l-137 -137 l-63 63l137 137q-49 68 -72.5 135.5t-23.5 143.5q0 104 26.5 165.5t69.5 120.5zM164 715q0 -145 102.5 -245.5t247.5 -100.5q141 0 244.5 101t103.5 245q0 147 -101.5 250.5t-246.5 103.5t-247.5 -104.5t-102.5 -249.5z" />
<glyph unicode="&#xa5;" horiz-adv-x="1062" d="M-25 1413h230l325 -547l328 547h229l-454 -760h229v-102h-229v-111h229v-102h-229v-338h-205v338h-229v102h229v111h-229v102h229z" />
<glyph unicode="&#xa7;" horiz-adv-x="985" d="M68 731q0 92 44 150.5t99 97.5q-47 43 -69.5 88t-22.5 94q0 129 113.5 202t265.5 73q104 0 188 -16.5t141 -35.5v-170q-78 37 -150.5 57.5t-160.5 20.5q-63 0 -127.5 -26.5t-64.5 -77.5q0 -78 157.5 -145.5t302.5 -129.5q70 -41 102 -85t32 -119q0 -94 -44.5 -153.5 t-97.5 -90.5q45 -43 74 -85t29 -120q0 -133 -122 -208t-302 -75q-106 0 -184 14.5t-124 35.5v176q84 -37 154 -59.5t160 -22.5q88 0 150.5 27.5t62.5 91.5q0 80 -142.5 140t-252 109.5t-160.5 95.5t-51 146zM242 801q0 -76 67.5 -113t161.5 -78l213 -94q29 33 44 65.5 t15 63.5q0 74 -106.5 125t-165.5 79t-91 41t-77 30q-27 -25 -44 -52.5t-17 -66.5z" />
<glyph unicode="&#xa8;" horiz-adv-x="696" d="M10 1169v226h252v-226h-252zM432 1169v226h252v-226h-252z" />
<glyph unicode="&#xa9;" d="M31 954q0 199 141 340.5t340 141.5t340 -141.5t141 -340.5q0 -201 -140 -341t-341 -140t-341 140t-140 341zM102 954q0 -170 120 -289.5t290 -119.5t290 119.5t120 289.5t-120 290t-290 120t-290 -120t-120 -290zM256 963q0 115 84 194.5t197 79.5q74 0 110.5 -20.5 t83.5 -59.5l-53 -67q-29 27 -61.5 45t-79.5 18q-74 0 -132.5 -51t-58.5 -139t57.5 -139.5t124.5 -51.5q57 0 85 15.5t65 46.5l53 -66q-43 -41 -92 -60.5t-102 -19.5q-113 0 -197 80t-84 195z" />
<glyph unicode="&#xaa;" horiz-adv-x="530" d="M70 721q0 84 73.5 130t212.5 46v18q0 70 -12 105t-63 35q-43 0 -64.5 -23.5t-21.5 -54.5h-107q0 72 48 116t149 44q109 0 141.5 -54.5t32.5 -138.5v-356h-103v67q-23 -41 -61.5 -60.5t-83.5 -19.5q-61 0 -101 40t-40 106zM172 725q0 -68 74 -68q45 0 77.5 47.5 t32.5 106.5v16h-18q-63 0 -114.5 -25.5t-51.5 -76.5z" />
<glyph unicode="&#xab;" horiz-adv-x="796" d="M61 506l150 395h190l-131 -395l131 -385h-190zM373 506l149 395h191l-131 -395l131 -385h-191z" />
<glyph unicode="&#xac;" horiz-adv-x="1214" d="M119 430v182h977v-540h-199v358h-778z" />
<glyph unicode="&#xad;" horiz-adv-x="948" d="M94 418v219h762v-219h-762z" />
<glyph unicode="&#xae;" d="M31 954q0 199 141 340.5t340 141.5t340 -141.5t141 -340.5q0 -201 -140 -341t-341 -140t-341 140t-140 341zM102 954q0 -170 120 -289.5t290 -119.5t290 119.5t120 289.5t-120 290t-290 120t-290 -120t-120 -290zM330 713v508h170q92 0 149.5 -33t57.5 -131 q0 -59 -21.5 -81t-67.5 -44l95 -219h-103l-78 205h-110v-205h-92zM422 999h110q37 0 57.5 15.5t20.5 50.5q0 68 -86 68h-102v-134z" />
<glyph unicode="&#xaf;" horiz-adv-x="696" d="M35 1145v158h627v-158h-627z" />
<glyph unicode="&#xb0;" horiz-adv-x="720" d="M121 1090q0 94 70.5 162.5t168.5 68.5t169 -68.5t71 -167.5q0 -96 -71.5 -167.5t-168.5 -71.5q-96 0 -167.5 72t-71.5 172zM238 1087q0 -51 34.5 -87.5t87.5 -36.5q49 0 86 36.5t37 87.5q0 47 -36.5 82t-86.5 35q-49 0 -85.5 -34.5t-36.5 -82.5z" />
<glyph unicode="&#xb1;" horiz-adv-x="1214" d="M121 -100h975v-183h-975v183zM121 430v182h387v385h199v-385h389v-182h-389v-430h-199v430h-387z" />
<glyph unicode="&#xb4;" horiz-adv-x="696" d="M262 1145l94 342h248l-172 -342h-170z" />
<glyph unicode="&#xb6;" horiz-adv-x="1099" d="M172 918q0 299 222 397t489 98h139v-80h-141v-1773h-78v1773h-101v-1773h-77v895q-246 47 -349.5 168.5t-103.5 294.5z" />
<glyph unicode="&#xb7;" horiz-adv-x="493" d="M121 524v252h252v-252h-252z" />
<glyph unicode="&#xb8;" horiz-adv-x="696" d="M236 -354q33 -25 65.5 -39.5t71.5 -14.5q43 0 66.5 28t23.5 63q0 66 -48 87t-110 21l-43 -6l57 248h117l-39 -166l23 2q80 0 142.5 -42t62.5 -144q0 -94 -59.5 -151.5t-176.5 -57.5q-51 0 -85 12t-68 31v129z" />
<glyph unicode="&#xba;" horiz-adv-x="569" d="M47 858q0 131 59.5 205t178.5 74q117 0 177 -75t60 -204q0 -133 -59.5 -206.5t-177.5 -73.5q-117 0 -177.5 74.5t-60.5 205.5zM162 858q0 -88 26.5 -143.5t96.5 -55.5t96.5 54.5t26.5 144.5q0 88 -26 142.5t-97 54.5q-70 0 -96.5 -53.5t-26.5 -143.5z" />
<glyph unicode="&#xbb;" horiz-adv-x="796" d="M84 121l133 395l-133 385h190l150 -385l-150 -395h-190zM395 121l133 395l-133 385h191l149 -385l-149 -395h-191z" />
<glyph unicode="&#xbf;" horiz-adv-x="909" d="M39 18q0 111 44 170.5t138 149.5l86 86q63 66 91 102.5t28 147.5v57h190v-98q0 -115 -18 -155t-111 -132l-122 -123q-63 -63 -91 -101t-28 -95q0 -86 61.5 -129t159.5 -43q72 0 155 22.5t136 50.5v-190q-82 -18 -163 -28.5t-130 -10.5q-188 0 -307 83t-119 236zM399 887 v248h252v-248h-252z" />
<glyph unicode="&#xc0;" horiz-adv-x="1251" d="M18 0l482 1413h252l483 -1413h-217l-139 403h-506l-137 -403h-218zM369 1925h248l94 -342h-170zM420 567h403l-194 658z" />
<glyph unicode="&#xc1;" horiz-adv-x="1251" d="M18 0l482 1413h252l483 -1413h-217l-139 403h-506l-137 -403h-218zM420 567h403l-194 658zM561 1583l94 342h248l-172 -342h-170z" />
<glyph unicode="&#xc2;" horiz-adv-x="1251" d="M18 0l482 1413h252l483 -1413h-217l-139 403h-506l-137 -403h-218zM318 1583l194 305h222l202 -305h-165l-146 172l-141 -172h-166zM420 567h403l-194 658z" />
<glyph unicode="&#xc3;" horiz-adv-x="1251" d="M18 0l482 1413h252l483 -1413h-217l-139 403h-506l-137 -403h-218zM345 1603q0 84 3 129t20 83t51 53.5t63 15.5q35 0 77 -22.5t76.5 -46t70.5 -46t48 -22.5q29 0 32 33.5t3 84.5h121q0 -150 -23.5 -216t-109.5 -66q-53 0 -126 41t-147 84q-25 0 -32 -18.5t-7 -59.5v-27 h-120zM420 567h403l-194 658z" />
<glyph unicode="&#xc4;" horiz-adv-x="1251" d="M18 0l482 1413h252l483 -1413h-217l-139 403h-506l-137 -403h-218zM289 1607v226h252v-226h-252zM420 567h403l-194 658zM711 1607v226h252v-226h-252z" />
<glyph unicode="&#xc5;" horiz-adv-x="1251" d="M18 0l482 1413h252l483 -1413h-217l-139 403h-506l-137 -403h-218zM418 1788q0 84 64.5 142t152.5 58q84 0 142.5 -58t58.5 -142q0 -86 -61.5 -145.5t-147.5 -59.5t-147.5 59.5t-61.5 145.5zM420 567h403l-194 658zM535 1788q0 -37 27.5 -62.5t64.5 -25.5q39 0 65.5 26.5 t26.5 63.5q0 33 -26.5 57.5t-63.5 24.5q-39 0 -66.5 -24t-27.5 -60z" />
<glyph unicode="&#xc6;" horiz-adv-x="1705" d="M6 0l797 1413h823v-164h-528l37 -504h469v-163h-457l31 -418h467v-164h-658l-45 582h-399l-307 -582h-230zM635 745h295l-35 494z" />
<glyph unicode="&#xc7;" horiz-adv-x="1099" d="M94 723q0 317 123 515t412 198q215 0 334.5 -112t119.5 -298h-237q0 92 -46 169t-177 77q-176 0 -240 -154.5t-64 -361.5q0 -293 85 -454t294 -161q111 0 179.5 31t150.5 80v-191q-66 -29 -165 -56.5t-206 -27.5q-254 0 -408.5 177.5t-154.5 568.5zM439 -354 q33 -25 65.5 -39.5t71.5 -14.5q43 0 66.5 28t23.5 63q0 66 -48 87t-110 21l-43 -6l57 248h117l-39 -166l23 2q80 0 142.5 -42t62.5 -144q0 -94 -59.5 -151.5t-176.5 -57.5q-51 0 -85 12t-68 31v129z" />
<glyph unicode="&#xc8;" d="M164 0v1413h780v-164h-575v-432h546v-164h-546v-489h594v-164h-799zM285 1925h248l94 -342h-170z" />
<glyph unicode="&#xc9;" d="M164 0v1413h780v-164h-575v-432h546v-164h-546v-489h594v-164h-799zM467 1583l94 342h248l-172 -342h-170z" />
<glyph unicode="&#xca;" d="M164 0v1413h780v-164h-575v-432h546v-164h-546v-489h594v-164h-799zM234 1583l194 305h222l202 -305h-165l-146 172l-141 -172h-166z" />
<glyph unicode="&#xcb;" d="M164 0v1413h780v-164h-575v-432h546v-164h-546v-489h594v-164h-799zM225 1607v226h252v-226h-252zM647 1607v226h252v-226h-252z" />
<glyph unicode="&#xcc;" horiz-adv-x="530" d="M8 1925h248l94 -342h-170zM164 0v1413h205v-1413h-205z" />
<glyph unicode="&#xcd;" horiz-adv-x="530" d="M164 0v1413h205v-1413h-205zM190 1583l94 342h248l-172 -342h-170z" />
<glyph unicode="&#xce;" horiz-adv-x="530" d="M-43 1583l194 305h222l202 -305h-165l-146 172l-141 -172h-166zM164 0v1413h205v-1413h-205z" />
<glyph unicode="&#xcf;" horiz-adv-x="530" d="M-72 1607v226h252v-226h-252zM164 0v1413h205v-1413h-205zM350 1607v226h252v-226h-252z" />
<glyph unicode="&#xd1;" horiz-adv-x="1327" d="M164 0v1413h256l557 -1106l4 1106h184v-1413h-241l-572 1133l-4 -1133h-184zM381 1603q0 84 3 129t20 83t51 53.5t63 15.5q35 0 77 -22.5t76.5 -46t70.5 -46t48 -22.5q29 0 32 33.5t3 84.5h121q0 -150 -23.5 -216t-109.5 -66q-53 0 -126 41t-147 84q-25 0 -32 -18.5 t-7 -59.5v-27h-120z" />
<glyph unicode="&#xd2;" horiz-adv-x="1290" d="M94 707q0 326 125 527.5t426 201.5t427 -203t126 -526q0 -328 -125 -529t-428 -201q-301 0 -426 201t-125 529zM319 707q0 -307 89.5 -436.5t236.5 -129.5q145 0 236.5 130t91.5 436q0 303 -90 434t-238 131q-188 0 -257 -167t-69 -398zM387 1925h248l94 -342h-170z" />
<glyph unicode="&#xd3;" horiz-adv-x="1290" d="M94 707q0 326 125 527.5t426 201.5t427 -203t126 -526q0 -328 -125 -529t-428 -201q-301 0 -426 201t-125 529zM319 707q0 -307 89.5 -436.5t236.5 -129.5q145 0 236.5 130t91.5 436q0 303 -90 434t-238 131q-188 0 -257 -167t-69 -398zM559 1583l94 342h248l-172 -342 h-170z" />
<glyph unicode="&#xd4;" horiz-adv-x="1290" d="M94 707q0 326 125 527.5t426 201.5t427 -203t126 -526q0 -328 -125 -529t-428 -201q-301 0 -426 201t-125 529zM319 707q0 -307 89.5 -436.5t236.5 -129.5q145 0 236.5 130t91.5 436q0 303 -90 434t-238 131q-188 0 -257 -167t-69 -398zM336 1583l194 305h222l202 -305 h-165l-146 172l-141 -172h-166z" />
<glyph unicode="&#xd5;" horiz-adv-x="1290" d="M94 707q0 326 125 527.5t426 201.5t427 -203t126 -526q0 -328 -125 -529t-428 -201q-301 0 -426 201t-125 529zM319 707q0 -307 89.5 -436.5t236.5 -129.5q145 0 236.5 130t91.5 436q0 303 -90 434t-238 131q-188 0 -257 -167t-69 -398zM363 1603q0 84 3 129t20 83 t51 53.5t63 15.5q35 0 77 -22.5t76.5 -46t70.5 -46t48 -22.5q29 0 32 33.5t3 84.5h121q0 -150 -23.5 -216t-109.5 -66q-53 0 -126 41t-147 84q-25 0 -32 -18.5t-7 -59.5v-27h-120z" />
<glyph unicode="&#xd6;" horiz-adv-x="1290" d="M94 707q0 326 125 527.5t426 201.5t427 -203t126 -526q0 -328 -125 -529t-428 -201q-301 0 -426 201t-125 529zM307 1607v226h252v-226h-252zM319 707q0 -307 89.5 -436.5t236.5 -129.5q145 0 236.5 130t91.5 436q0 303 -90 434t-238 131q-188 0 -257 -167t-69 -398z M729 1607v226h252v-226h-252z" />
<glyph unicode="&#xd8;" horiz-adv-x="1290" d="M94 707q0 326 125 527.5t426 201.5q119 0 184.5 -20.5t143.5 -74.5l102 164l103 -63l-117 -187q78 -100 107.5 -237t29.5 -311q0 -328 -125 -529t-428 -201q-125 0 -188.5 23t-137.5 78l-100 -164l-104 66l114 186q-84 106 -109.5 232t-25.5 309zM319 707 q0 -131 6.5 -188.5t30.5 -153.5l514 817q-74 90 -225 90q-188 0 -257 -167t-69 -398zM416 233q43 -51 99 -71.5t130 -20.5q199 0 263.5 162t64.5 404q0 98 -7.5 182t-27.5 166z" />
<glyph unicode="&#xd9;" horiz-adv-x="1251" d="M147 418v995h205v-956q0 -133 47 -224.5t224 -91.5q180 0 229 92.5t49 223.5v956h205v-995q0 -217 -132 -329t-349 -112t-347.5 111t-130.5 330zM369 1925h248l94 -342h-170z" />
<glyph unicode="&#xda;" horiz-adv-x="1251" d="M147 418v995h205v-956q0 -133 47 -224.5t224 -91.5q180 0 229 92.5t49 223.5v956h205v-995q0 -217 -132 -329t-349 -112t-347.5 111t-130.5 330zM541 1583l94 342h248l-172 -342h-170z" />
<glyph unicode="&#xdb;" horiz-adv-x="1251" d="M147 418v995h205v-956q0 -133 47 -224.5t224 -91.5q180 0 229 92.5t49 223.5v956h205v-995q0 -217 -132 -329t-349 -112t-347.5 111t-130.5 330zM318 1583l194 305h222l202 -305h-165l-146 172l-141 -172h-166z" />
<glyph unicode="&#xdc;" horiz-adv-x="1251" d="M147 418v995h205v-956q0 -133 47 -224.5t224 -91.5q180 0 229 92.5t49 223.5v956h205v-995q0 -217 -132 -329t-349 -112t-347.5 111t-130.5 330zM289 1607v226h252v-226h-252zM711 1607v226h252v-226h-252z" />
<glyph unicode="&#xdf;" horiz-adv-x="1099" d="M152 0v958q0 207 68.5 342.5t326.5 135.5q174 0 281.5 -93.5t107.5 -252.5q0 -154 -61.5 -224.5t-159.5 -99.5q139 -20 218 -105.5t79 -279.5q0 -193 -102.5 -296t-311.5 -103q-82 0 -156 20v127q27 -8 58.5 -16.5t77.5 -8.5q121 0 175 78t54 203q0 186 -68.5 251.5 t-220.5 65.5v123q104 0 158.5 58.5t54.5 197.5q0 98 -48 165t-140 67q-133 0 -170 -82t-37 -201v-1030h-184z" />
<glyph unicode="&#xe0;" horiz-adv-x="948" d="M88 240q0 176 153.5 247.5t379.5 71.5v170q-12 68 -51.5 96.5t-98.5 28.5q-78 0 -117 -43t-39 -106h-194q0 129 86 210.5t278 81.5q162 0 241 -78.5t79 -248.5v-670h-184v121q-29 -53 -93.5 -98.5t-162.5 -45.5q-133 0 -205 72t-72 191zM217 1487h248l94 -342h-170z M293 246q0 -53 31.5 -89t74.5 -36q90 0 156 84t66 176v55h-37q-121 0 -206 -50t-85 -140z" />
<glyph unicode="&#xe1;" horiz-adv-x="948" d="M88 240q0 176 153.5 247.5t379.5 71.5v170q-12 68 -51.5 96.5t-98.5 28.5q-78 0 -117 -43t-39 -106h-194q0 129 86 210.5t278 81.5q162 0 241 -78.5t79 -248.5v-670h-184v121q-29 -53 -93.5 -98.5t-162.5 -45.5q-133 0 -205 72t-72 191zM293 246q0 -53 31.5 -89t74.5 -36 q90 0 156 84t66 176v55h-37q-121 0 -206 -50t-85 -140zM389 1145l94 342h248l-172 -342h-170z" />
<glyph unicode="&#xe2;" horiz-adv-x="948" d="M88 240q0 176 153.5 247.5t379.5 71.5v170q-12 68 -51.5 96.5t-98.5 28.5q-78 0 -117 -43t-39 -106h-194q0 129 86 210.5t278 81.5q162 0 241 -78.5t79 -248.5v-670h-184v121q-29 -53 -93.5 -98.5t-162.5 -45.5q-133 0 -205 72t-72 191zM166 1145l194 305h222l202 -305 h-165l-146 172l-141 -172h-166zM293 246q0 -53 31.5 -89t74.5 -36q90 0 156 84t66 176v55h-37q-121 0 -206 -50t-85 -140z" />
<glyph unicode="&#xe3;" horiz-adv-x="948" d="M88 240q0 176 153.5 247.5t379.5 71.5v170q-12 68 -51.5 96.5t-98.5 28.5q-78 0 -117 -43t-39 -106h-194q0 129 86 210.5t278 81.5q162 0 241 -78.5t79 -248.5v-670h-184v121q-29 -53 -93.5 -98.5t-162.5 -45.5q-133 0 -205 72t-72 191zM193 1165q0 84 3 129t20 83 t51 53.5t63 15.5q35 0 77 -22.5t76.5 -46t70.5 -46t48 -22.5q29 0 32 33.5t3 84.5h121q0 -150 -23.5 -216t-109.5 -66q-53 0 -126 41t-147 84q-25 0 -32 -18.5t-7 -59.5v-27h-120zM293 246q0 -53 31.5 -89t74.5 -36q90 0 156 84t66 176v55h-37q-121 0 -206 -50t-85 -140z " />
<glyph unicode="&#xe4;" horiz-adv-x="948" d="M88 240q0 176 153.5 247.5t379.5 71.5v170q-12 68 -51.5 96.5t-98.5 28.5q-78 0 -117 -43t-39 -106h-194q0 129 86 210.5t278 81.5q162 0 241 -78.5t79 -248.5v-670h-184v121q-29 -53 -93.5 -98.5t-162.5 -45.5q-133 0 -205 72t-72 191zM137 1169v226h252v-226h-252z M293 246q0 -53 31.5 -89t74.5 -36q90 0 156 84t66 176v55h-37q-121 0 -206 -50t-85 -140zM559 1169v226h252v-226h-252z" />
<glyph unicode="&#xe5;" horiz-adv-x="948" d="M88 240q0 176 153.5 247.5t379.5 71.5v170q-12 68 -51.5 96.5t-98.5 28.5q-78 0 -117 -43t-39 -106h-194q0 129 86 210.5t278 81.5q162 0 241 -78.5t79 -248.5v-670h-184v121q-29 -53 -93.5 -98.5t-162.5 -45.5q-133 0 -205 72t-72 191zM266 1350q0 84 64.5 142t152.5 58 q84 0 142.5 -58t58.5 -142q0 -86 -61.5 -145.5t-147.5 -59.5t-147.5 59.5t-61.5 145.5zM293 246q0 -53 31.5 -89t74.5 -36q90 0 156 84t66 176v55h-37q-121 0 -206 -50t-85 -140zM383 1350q0 -37 27.5 -62.5t64.5 -25.5q39 0 65.5 26.5t26.5 63.5q0 33 -26.5 57.5 t-63.5 24.5q-39 0 -66.5 -24t-27.5 -60z" />
<glyph unicode="&#xe6;" horiz-adv-x="1478" d="M90 268q0 215 173 286t384 71v49q0 70 -27.5 125t-134.5 55q-80 0 -118.5 -41t-38.5 -86h-199q0 104 85 187t263 83q109 0 167 -30.5t106 -83.5q57 53 126.5 83.5t165.5 30.5q195 0 277 -111.5t82 -281.5v-102h-570q16 -143 85 -262t276 -119q102 0 186 26v-135 q-127 -35 -254 -35q-156 0 -236.5 49.5t-152.5 135.5q-43 -70 -125 -127.5t-223 -57.5q-133 0 -215 80t-82 211zM274 274q0 -68 39 -110.5t113 -42.5q104 0 162.5 81t58.5 222v78h-53q-127 0 -223.5 -55.5t-96.5 -172.5zM831 625h386q0 80 -35 154.5t-150 74.5t-158 -79 t-43 -150z" />
<glyph unicode="&#xe7;" horiz-adv-x="872" d="M80 522q0 217 102.5 346t313.5 129q188 0 268 -98t80 -242h-211q0 82 -30 139.5t-120 57.5q-92 0 -145 -79t-53 -218q0 -176 89 -306t298 -130q41 0 80 5t75 15v-127q-55 -16 -121.5 -26.5t-148.5 -10.5q-256 0 -366.5 162t-110.5 383zM324 -354q33 -25 65.5 -39.5 t71.5 -14.5q43 0 66.5 28t23.5 63q0 66 -48 87t-110 21l-43 -6l57 248h117l-39 -166l23 2q80 0 142.5 -42t62.5 -144q0 -94 -59.5 -151.5t-176.5 -57.5q-51 0 -85 12t-68 31v129z" />
<glyph unicode="&#xe8;" horiz-adv-x="909" d="M82 535q0 272 126 367t271 95q172 0 262 -106.5t90 -284.5v-47h-565q0 -166 88 -302t271 -136q51 0 94 9t90 26v-146q-66 -14 -120 -23.5t-124 -9.5q-229 0 -356 137.5t-127 420.5zM217 1487h248l94 -342h-170zM274 682h373q0 63 -41 117.5t-137 54.5q-98 0 -146.5 -60.5 t-48.5 -111.5z" />
<glyph unicode="&#xe9;" horiz-adv-x="909" d="M82 535q0 272 126 367t271 95q172 0 262 -106.5t90 -284.5v-47h-565q0 -166 88 -302t271 -136q51 0 94 9t90 26v-146q-66 -14 -120 -23.5t-124 -9.5q-229 0 -356 137.5t-127 420.5zM274 682h373q0 63 -41 117.5t-137 54.5q-98 0 -146.5 -60.5t-48.5 -111.5zM389 1145 l94 342h248l-172 -342h-170z" />
<glyph unicode="&#xea;" horiz-adv-x="909" d="M82 535q0 272 126 367t271 95q172 0 262 -106.5t90 -284.5v-47h-565q0 -166 88 -302t271 -136q51 0 94 9t90 26v-146q-66 -14 -120 -23.5t-124 -9.5q-229 0 -356 137.5t-127 420.5zM166 1145l194 305h222l202 -305h-165l-146 172l-141 -172h-166zM274 682h373 q0 63 -41 117.5t-137 54.5q-98 0 -146.5 -60.5t-48.5 -111.5z" />
<glyph unicode="&#xeb;" horiz-adv-x="909" d="M82 535q0 272 126 367t271 95q172 0 262 -106.5t90 -284.5v-47h-565q0 -166 88 -302t271 -136q51 0 94 9t90 26v-146q-66 -14 -120 -23.5t-124 -9.5q-229 0 -356 137.5t-127 420.5zM116 1169v226h252v-226h-252zM274 682h373q0 63 -41 117.5t-137 54.5 q-98 0 -146.5 -60.5t-48.5 -111.5zM538 1169v226h252v-226h-252z" />
<glyph unicode="&#xec;" horiz-adv-x="530" d="M8 1487h248l94 -342h-170zM172 0v975h184v-975h-184z" />
<glyph unicode="&#xed;" horiz-adv-x="530" d="M172 0v975h184v-975h-184zM180 1145l94 342h248l-172 -342h-170z" />
<glyph unicode="&#xee;" horiz-adv-x="530" d="M-43 1145l194 305h222l202 -305h-165l-146 172l-141 -172h-166zM172 0v975h184v-975h-184z" />
<glyph unicode="&#xef;" horiz-adv-x="530" d="M-72 1169v226h252v-226h-252zM172 0v975h184v-975h-184zM350 1169v226h252v-226h-252z" />
<glyph unicode="&#xf1;" horiz-adv-x="1062" d="M152 0v975h184v-209q43 96 112.5 163.5t200.5 67.5q150 0 206 -98t56 -223v-676h-184v532q0 160 -20.5 220.5t-112.5 60.5q-109 0 -183.5 -123t-74.5 -276v-414h-184zM250 1165q0 84 3 129t20 83t51 53.5t63 15.5q35 0 77 -22.5t76.5 -46t70.5 -46t48 -22.5q29 0 32 33.5 t3 84.5h121q0 -150 -23.5 -216t-109.5 -66q-53 0 -126 41t-147 84q-25 0 -32 -18.5t-7 -59.5v-27h-120z" />
<glyph unicode="&#xf2;" d="M82 487q0 240 107.5 375t324.5 135q213 0 321.5 -135t108.5 -375t-107.5 -375t-322.5 -135t-323.5 136t-108.5 374zM254 1487h248l94 -342h-170zM287 487q0 -205 59 -285.5t168 -80.5q131 0 178 107.5t47 258.5q0 207 -59 287t-166 80q-135 0 -181 -106.5t-46 -260.5z " />
<glyph unicode="&#xf3;" d="M82 487q0 240 107.5 375t324.5 135q213 0 321.5 -135t108.5 -375t-107.5 -375t-322.5 -135t-323.5 136t-108.5 374zM287 487q0 -205 59 -285.5t168 -80.5q131 0 178 107.5t47 258.5q0 207 -59 287t-166 80q-135 0 -181 -106.5t-46 -260.5zM426 1145l94 342h248l-172 -342 h-170z" />
<glyph unicode="&#xf4;" d="M82 487q0 240 107.5 375t324.5 135q213 0 321.5 -135t108.5 -375t-107.5 -375t-322.5 -135t-323.5 136t-108.5 374zM203 1145l194 305h222l202 -305h-165l-146 172l-141 -172h-166zM287 487q0 -205 59 -285.5t168 -80.5q131 0 178 107.5t47 258.5q0 207 -59 287t-166 80 q-135 0 -181 -106.5t-46 -260.5z" />
<glyph unicode="&#xf5;" d="M82 487q0 240 107.5 375t324.5 135q213 0 321.5 -135t108.5 -375t-107.5 -375t-322.5 -135t-323.5 136t-108.5 374zM230 1165q0 84 3 129t20 83t51 53.5t63 15.5q35 0 77 -22.5t76.5 -46t70.5 -46t48 -22.5q29 0 32 33.5t3 84.5h121q0 -150 -23.5 -216t-109.5 -66 q-53 0 -126 41t-147 84q-25 0 -32 -18.5t-7 -59.5v-27h-120zM287 487q0 -205 59 -285.5t168 -80.5q131 0 178 107.5t47 258.5q0 207 -59 287t-166 80q-135 0 -181 -106.5t-46 -260.5z" />
<glyph unicode="&#xf6;" d="M82 487q0 240 107.5 375t324.5 135q213 0 321.5 -135t108.5 -375t-107.5 -375t-322.5 -135t-323.5 136t-108.5 374zM174 1169v226h252v-226h-252zM287 487q0 -205 59 -285.5t168 -80.5q131 0 178 107.5t47 258.5q0 207 -59 287t-166 80q-135 0 -181 -106.5t-46 -260.5z M596 1169v226h252v-226h-252z" />
<glyph unicode="&#xf7;" horiz-adv-x="1214" d="M119 430v182h977v-182h-977zM487 0v240h240v-240h-240zM487 803v239h240v-239h-240z" />
<glyph unicode="&#xf8;" d="M82 496q0 233 111.5 367t328.5 134q84 0 130 -15t102 -42l92 141l82 -55l-103 -152q49 -57 84 -149t35 -254q0 -494 -436 -494q-88 0 -133 15.5t-99 46.5l-96 -150l-82 56l103 155q-49 59 -84 149.5t-35 246.5zM287 498q0 -57 7 -114.5t19 -111.5l346 527 q-25 25 -57.5 40t-77.5 15q-137 0 -187 -98.5t-50 -257.5zM367 176q25 -25 62.5 -40t80.5 -15q109 0 169 75.5t60 247.5q0 152 -28 250z" />
<glyph unicode="&#xf9;" horiz-adv-x="1062" d="M141 299v676h185v-533q0 -129 12 -204.5t121 -75.5t183.5 123t74.5 276v414h184v-975h-184v209q-39 -92 -112 -162t-202 -70q-150 0 -206 98.5t-56 223.5zM274 1487h248l94 -342h-170z" />
<glyph unicode="&#xfa;" horiz-adv-x="1062" d="M141 299v676h185v-533q0 -129 12 -204.5t121 -75.5t183.5 123t74.5 276v414h184v-975h-184v209q-39 -92 -112 -162t-202 -70q-150 0 -206 98.5t-56 223.5zM446 1145l94 342h248l-172 -342h-170z" />
<glyph unicode="&#xfb;" horiz-adv-x="1062" d="M141 299v676h185v-533q0 -129 12 -204.5t121 -75.5t183.5 123t74.5 276v414h184v-975h-184v209q-39 -92 -112 -162t-202 -70q-150 0 -206 98.5t-56 223.5zM223 1145l194 305h222l202 -305h-165l-146 172l-141 -172h-166z" />
<glyph unicode="&#xfc;" horiz-adv-x="1062" d="M141 299v676h185v-533q0 -129 12 -204.5t121 -75.5t183.5 123t74.5 276v414h184v-975h-184v209q-39 -92 -112 -162t-202 -70q-150 0 -206 98.5t-56 223.5zM194 1169v226h252v-226h-252zM616 1169v226h252v-226h-252z" />
<glyph unicode="&#xff;" horiz-adv-x="909" d="M6 975h205l256 -705l233 705h205l-485 -1395h-180l137 414zM116 1169v226h252v-226h-252zM538 1169v226h252v-226h-252z" />
<glyph unicode="&#x152;" horiz-adv-x="1820" d="M94 707q0 350 119 539.5t416 189.5q84 0 180 -52.5t154 -142.5l4 172h772v-164h-568v-430h539v-164h-539v-491h588v-164h-792v172q-45 -76 -139.5 -135.5t-198.5 -59.5q-295 0 -415 189.5t-120 540.5zM319 707q0 -260 64 -413t246 -153q154 0 246 129t92 437 q0 303 -93.5 434t-244.5 131q-180 0 -245 -154.5t-65 -410.5z" />
<glyph unicode="&#x153;" horiz-adv-x="1593" d="M82 487q0 233 108.5 371.5t323.5 138.5q72 0 160 -26.5t157 -116.5q53 61 126 102t194 41q201 0 283 -115.5t82 -312.5v-69h-584q14 -147 90 -263t281 -116q94 0 188 29v-138q-61 -14 -130 -24.5t-128 -10.5q-145 0 -238.5 52.5t-138.5 120.5q-63 -92 -146 -132.5 t-196 -40.5q-213 0 -322.5 139.5t-109.5 370.5zM287 487q0 -203 61.5 -284.5t165.5 -81.5q133 0 173 102.5t40 263.5q0 160 -39 263.5t-174 103.5q-129 0 -178 -111.5t-49 -255.5zM932 623h399q0 86 -37 158.5t-159 72.5q-111 0 -157 -79t-46 -152z" />
<glyph unicode="&#x178;" horiz-adv-x="1062" d="M-25 1413h226l329 -545l332 545h225l-454 -760v-653h-205v653zM194 1607v226h252v-226h-252zM616 1607v226h252v-226h-252z" />
<glyph unicode="&#x2c6;" horiz-adv-x="696" d="M39 1145l194 305h222l202 -305h-165l-146 172l-141 -172h-166z" />
<glyph unicode="&#x2dc;" horiz-adv-x="696" d="M66 1165q0 84 3 129t20 83t51 53.5t63 15.5q35 0 77 -22.5t76.5 -46t70.5 -46t48 -22.5q29 0 32 33.5t3 84.5h121q0 -150 -23.5 -216t-109.5 -66q-53 0 -126 41t-147 84q-25 0 -32 -18.5t-7 -59.5v-27h-120z" />
<glyph unicode="&#x2000;" horiz-adv-x="994" />
<glyph unicode="&#x2001;" horiz-adv-x="1988" />
<glyph unicode="&#x2002;" horiz-adv-x="994" />
<glyph unicode="&#x2003;" horiz-adv-x="1988" />
<glyph unicode="&#x2004;" horiz-adv-x="662" />
<glyph unicode="&#x2005;" horiz-adv-x="497" />
<glyph unicode="&#x2006;" horiz-adv-x="331" />
<glyph unicode="&#x2007;" horiz-adv-x="331" />
<glyph unicode="&#x2008;" horiz-adv-x="248" />
<glyph unicode="&#x2009;" horiz-adv-x="397" />
<glyph unicode="&#x200a;" horiz-adv-x="110" />
<glyph unicode="&#x2010;" horiz-adv-x="948" d="M94 418v219h762v-219h-762z" />
<glyph unicode="&#x2011;" horiz-adv-x="948" d="M94 418v219h762v-219h-762z" />
<glyph unicode="&#x2012;" horiz-adv-x="948" d="M94 418v219h762v-219h-762z" />
<glyph unicode="&#x2013;" horiz-adv-x="1138" d="M94 418v219h950v-219h-950z" />
<glyph unicode="&#x2014;" horiz-adv-x="1478" d="M92 418v219h1294v-219h-1294z" />
<glyph unicode="&#x2018;" horiz-adv-x="454" d="M90 946l78 467h178l-18 -467h-238z" />
<glyph unicode="&#x2019;" horiz-adv-x="454" d="M109 946l20 467h236l-76 -467h-180z" />
<glyph unicode="&#x201a;" horiz-adv-x="454" d="M109 -184l20 467h236l-76 -467h-180z" />
<glyph unicode="&#x201c;" horiz-adv-x="796" d="M109 946l75 467h181l-21 -467h-235zM451 946l75 467h181l-21 -467h-235z" />
<glyph unicode="&#x201d;" horiz-adv-x="796" d="M109 946l20 467h236l-76 -467h-180zM451 946l20 467h236l-76 -467h-180z" />
<glyph unicode="&#x201e;" horiz-adv-x="796" d="M109 -184l20 467h236l-76 -467h-180zM451 -184l20 467h236l-76 -467h-180z" />
<glyph unicode="&#x2022;" horiz-adv-x="1099" d="M180 737q0 154 109.5 263.5t261.5 109.5q154 0 262.5 -108.5t108.5 -264.5q0 -152 -108.5 -260t-262.5 -108q-152 0 -261.5 107t-109.5 261z" />
<glyph unicode="&#x2026;" horiz-adv-x="1478" d="M127 0v240h240v-240h-240zM621 0v240h239v-240h-239zM1114 0v240h240v-240h-240z" />
<glyph unicode="&#x202f;" horiz-adv-x="397" />
<glyph unicode="&#x2039;" horiz-adv-x="493" d="M66 506l149 395h191l-134 -395l134 -385h-191z" />
<glyph unicode="&#x203a;" horiz-adv-x="493" d="M88 121l133 395l-133 385h191l149 -385l-149 -395h-191z" />
<glyph unicode="&#x205f;" horiz-adv-x="497" />
<glyph unicode="&#x2122;" horiz-adv-x="1251" d="M20 1327v86h390v-86h-150v-508h-90v508h-150zM477 819v594h164l98 -467l105 467h164v-594h-90v537l-121 -537h-109l-117 537l-4 -537h-90z" />
<glyph unicode="&#xe000;" horiz-adv-x="972" d="M0 0v973h973v-973h-973z" />
<glyph unicode="&#xfb01;" horiz-adv-x="1214" d="M49 831v144h178v112q0 348 373 349q74 0 107.5 -3t89.5 -16v-153q-41 12 -82 20t-113 8q-100 0 -145 -65.5t-45 -151.5v-100h290v-144h-290v-831h-185v831h-178zM838 1204v209h221v-209h-221zM858 0v975h184v-975h-184z" />
<glyph unicode="&#xfb02;" horiz-adv-x="1214" d="M49 831v144h178v112q0 348 373 349q74 0 107.5 -3t89.5 -16v-153q-41 12 -82 20t-113 8q-100 0 -145 -65.5t-45 -151.5v-100h290v-144h-290v-831h-185v831h-178zM858 0v1413h184v-1413h-184z" />
</font>
</defs>
</svg>
