<?xml version="1.0" standalone="no"?>
<!DOCTYPE svg PUBLIC "-//W3C//DTD SVG 1.1//EN" "http://www.w3.org/Graphics/SVG/1.1/DTD/svg11.dtd" >
<svg xmlns="http://www.w3.org/2000/svg">
<metadata></metadata>
<defs>
<font id="ATRotisSansSerif-ItalicRg" horiz-adv-x="1024" >
<font-face units-per-em="2048" ascent="1638" descent="-410" />
<missing-glyph horiz-adv-x="417" />
<glyph horiz-adv-x="0" />
<glyph horiz-adv-x="2048" />
<glyph unicode=" "  horiz-adv-x="417" />
<glyph unicode="&#x09;" horiz-adv-x="417" />
<glyph unicode="&#xa0;" horiz-adv-x="417" />
<glyph unicode="!" horiz-adv-x="569" d="M258 0l41 203h203l-41 -203h-203zM367 383l182 1030h172l-217 -1030h-137z" />
<glyph unicode="&#x22;" horiz-adv-x="720" d="M340 975l53 438h187l-123 -438h-117zM641 975l51 438h187l-121 -438h-117z" />
<glyph unicode="#" horiz-adv-x="1175" d="M199 0l198 438h-194l49 111h197l88 196h-195l49 111h197l203 442h129l-203 -442h174l203 442h129l-203 -442h205l-49 -111h-207l-88 -196h204l-49 -111h-207l-198 -438h-129l198 438h-174l-198 -438h-129zM578 549h174l88 196h-174z" />
<glyph unicode="$" horiz-adv-x="1099" d="M172 246l4 30h182l-4 -34q0 -80 43 -120t113 -52l113 583q-127 43 -209 99.5t-82 199.5q0 193 127 304.5t303 111.5l31 152h98l-31 -152q113 0 212 -65.5t99 -190.5l-4 -39h-182l4 43q0 70 -42 110t-105 50l-105 -543q145 -47 233.5 -114.5t88.5 -221.5 q0 -195 -140.5 -307.5t-328.5 -112.5l-33 -172h-98l33 172q-125 0 -222.5 60.5t-97.5 208.5zM504 977q0 -82 39 -132t102 -79l98 510q-106 -20 -172.5 -100t-66.5 -199zM608 70q115 16 193 103t78 218q0 92 -53.5 146.5t-110.5 80.5z" />
<glyph unicode="%" horiz-adv-x="1669" d="M207 698q0 238 94 430.5t299 192.5q127 0 186.5 -79t59.5 -210q0 -227 -95.5 -428t-297.5 -201q-131 0 -188.5 77t-57.5 218zM326 709q0 -92 32.5 -150.5t110.5 -58.5q131 0 194.5 179t63.5 343q0 96 -26.5 149.5t-106.5 53.5q-131 0 -199.5 -170t-68.5 -346zM565 0 l678 1298h117l-678 -1298h-117zM1075 270q0 236 95.5 430.5t299.5 194.5q127 0 185.5 -80t58.5 -211q0 -229 -94 -428t-297 -199q-131 0 -189.5 76t-58.5 217zM1194 283q0 -92 32.5 -150.5t110.5 -58.5q131 0 194.5 179t63.5 341q0 94 -26.5 149.5t-104.5 55.5 q-133 0 -201.5 -170t-68.5 -346z" />
<glyph unicode="&#x26;" horiz-adv-x="1327" d="M178 305q0 172 86 277.5t230 142.5q-94 47 -131 109.5t-37 140.5q0 178 124.5 284.5t337.5 106.5q111 0 222 -35l-25 -125q-49 20 -94 31.5t-100 11.5q-137 0 -219.5 -69.5t-82.5 -200.5q0 -115 70 -158t205 -43h315l70 355l162 88l-86 -443h235l-20 -114h-238l-69 -361 q-6 -27 -10.5 -55.5t-4.5 -54.5q0 -43 28 -71t83 -28q23 0 49.5 4t52.5 8l-22 -112q-27 -8 -53.5 -12.5t-59.5 -4.5q-113 0 -170 38t-57 122q0 72 16 154l72 373h-395q-164 0 -242 -99.5t-78 -234.5q0 -113 59.5 -174.5t190.5 -61.5q84 0 184 35l-24 -123 q-53 -14 -98.5 -21.5t-92.5 -7.5q-199 0 -291 88.5t-92 239.5z" />
<glyph unicode="'" horiz-adv-x="417" d="M338 975l51 438h186l-120 -438h-117z" />
<glyph unicode="(" horiz-adv-x="569" d="M190 74q0 121 38 362.5t103.5 488t132 365.5t160 177.5t187.5 58.5l-18 -90q-43 -8 -100.5 -56.5t-101.5 -143.5t-103.5 -349t-99.5 -504t-40 -356q0 -115 31 -178.5t88 -92.5l-16 -90q-129 35 -195 134.5t-66 273.5z" />
<glyph unicode=")" horiz-adv-x="569" d="M-10 -334l16 90q47 8 103.5 56.5t114 174.5t143.5 563t86 615q0 113 -31 176.5t-90 94.5l18 90q127 -35 193.5 -135.5t66.5 -272.5q0 -201 -85 -616.5t-171 -567t-179 -210t-185 -58.5z" />
<glyph unicode="*" horiz-adv-x="645" d="M238 1139l20 100l137 -27l78 -20l-31 74l-45 135l99 35l47 -138l20 -77l47 65l95 109l79 -70l-94 -108l-55 -58l78 -8l137 -29l-21 -98l-135 27l-78 20l31 -74l49 -133l-102 -37l-47 136l-19 73l-47 -59l-94 -109l-80 70l94 106l56 58l-82 10z" />
<glyph unicode="+" horiz-adv-x="1175" d="M201 436l24 125h398l77 402h140l-78 -402h407l-22 -125h-410l-84 -436h-139l84 436h-397z" />
<glyph unicode="," horiz-adv-x="417" d="M63 -252l117 455h180l-161 -455h-136z" />
<glyph unicode="-" horiz-adv-x="833" d="M190 436l29 144h623l-27 -144h-625z" />
<glyph unicode="." horiz-adv-x="417" d="M106 0l41 203h203l-41 -203h-203z" />
<glyph unicode="/" horiz-adv-x="606" d="M-18 -281l745 1840h145l-745 -1840h-145z" />
<glyph unicode="0" d="M172 403q0 356 141.5 637t434.5 281q190 0 274 -117t84 -309q0 -350 -142.5 -634t-441.5 -284q-182 0 -266 112.5t-84 313.5zM334 408q0 -133 47 -221.5t170 -88.5q195 0 294 258t99 537q0 139 -42 223t-167 84q-195 0 -298 -254t-103 -538z" />
<glyph unicode="1" d="M449 993l30 158l291 170h143l-258 -1321h-149l225 1159z" />
<glyph unicode="2" d="M113 0l26 133q150 109 312.5 246t310 317.5t147.5 317.5q0 76 -43 131t-149 55q-109 0 -164 -59.5t-72 -134.5h-170q16 129 124 222t296 93q172 0 256 -90t84 -221q0 -166 -116.5 -318.5t-293 -295t-327.5 -263.5h581l-24 -133h-778z" />
<glyph unicode="3" d="M139 229l4 41h168l-2 -32q6 -59 55.5 -99.5t145.5 -40.5q145 0 209.5 86t64.5 224q0 127 -62.5 167.5t-176.5 40.5l22 121q147 0 233.5 66.5t86.5 216.5q0 74 -44 127t-149 53q-96 0 -147 -49t-68 -119h-170q10 111 114.5 200t278.5 89q176 0 261.5 -79t85.5 -206 q0 -158 -91.5 -256t-185.5 -98q74 -29 124 -83t50 -179q0 -193 -111.5 -318t-338.5 -125q-160 0 -258.5 68t-98.5 184z" />
<glyph unicode="4" d="M154 362l24 127l678 809h164l-156 -802h226l-25 -134h-227l-70 -362h-150l70 362h-534zM330 496h385l121 620l-5 4z" />
<glyph unicode="5" d="M182 236l4 34h168l-2 -30q0 -51 52.5 -96.5t152.5 -45.5q156 0 230.5 102.5t74.5 258.5q0 207 -205 207q-76 0 -120.5 -28t-87.5 -71h-156l178 731h649l-33 -133h-499l-109 -444q45 29 100.5 47t137.5 18q141 0 224 -79.5t83 -231.5q0 -215 -124 -356.5t-365 -141.5 q-166 0 -259.5 68t-93.5 191z" />
<glyph unicode="6" d="M227 416q0 348 138.5 626.5t443.5 278.5q145 0 233 -69.5t88 -180.5q0 -27 -4 -41h-168l3 33q0 59 -47.5 98t-122.5 39q-190 0 -265 -173t-110 -392l4 -4q53 68 130 110.5t193 42.5q172 0 235.5 -100t63.5 -233q0 -186 -119.5 -330t-328.5 -144t-288 121t-79 318z M389 334q0 -102 50 -169t169 -67q123 0 198 96.5t75 231.5q0 102 -50.5 170t-156.5 68q-139 0 -212 -101.5t-73 -228.5z" />
<glyph unicode="7" d="M233 0l721 1165h-594l27 133h764l-27 -133l-721 -1165h-170z" />
<glyph unicode="8" d="M178 287q0 164 81 261t226 122q-168 51 -168 245q0 176 115 291t322 115q162 0 249 -82t87 -209q0 -168 -89.5 -254t-193.5 -104q80 -29 131 -91.5t51 -174.5q0 -182 -118.5 -305.5t-335.5 -123.5q-186 0 -271.5 85.5t-85.5 224.5zM340 305q0 -100 55.5 -153.5 t159.5 -53.5q145 0 208.5 89t63.5 219q0 86 -46 146t-165 60q-135 0 -205.5 -92t-70.5 -215zM479 918q0 -86 50.5 -135.5t140.5 -49.5q141 0 199.5 83t58.5 194q0 82 -45 136t-150 54q-125 0 -189.5 -86t-64.5 -196z" />
<glyph unicode="9" d="M164 227l4 41h168l-2 -32q0 -57 48 -97.5t124 -40.5q147 0 239.5 142.5t133.5 425.5l-5 4q-51 -68 -127.5 -111t-193.5 -43q-172 0 -235.5 100.5t-63.5 231.5q0 186 120 329.5t328 143.5q207 0 287 -120t80 -316q0 -350 -138 -629t-444 -279q-147 0 -235 70t-88 180z M416 872q0 -100 50.5 -167.5t156.5 -67.5q139 0 211.5 99.5t72.5 228.5q0 102 -50 168.5t-169 66.5q-123 0 -197.5 -96t-74.5 -232z" />
<glyph unicode=":" horiz-adv-x="417" d="M147 0l41 203h203l-41 -203h-203zM299 772l39 203h203l-39 -203h-203z" />
<glyph unicode=";" horiz-adv-x="417" d="M104 -252l117 455h180l-161 -455h-136zM317 772l41 203h203l-41 -203h-203z" />
<glyph unicode="&#x3c;" horiz-adv-x="1175" d="M197 418l24 127l1026 418l-24 -129l-875 -353l737 -352l-24 -129z" />
<glyph unicode="=" horiz-adv-x="1175" d="M170 285l25 125h944l-23 -125h-946zM229 588l25 125h944l-24 -125h-945z" />
<glyph unicode="&#x3e;" horiz-adv-x="1175" d="M115 0l26 129l875 352l-737 353l24 129l864 -418l-24 -129z" />
<glyph unicode="?" horiz-adv-x="833" d="M244 0l39 203h202l-39 -203h-202zM348 383l19 92q18 100 48.5 148.5t131.5 140.5l143 131q88 80 130 130t42 116q0 82 -66.5 122t-148.5 40q-74 0 -139.5 -16.5t-130.5 -49.5l31 154q86 25 150.5 35t119.5 10q162 0 256 -77t94 -190q0 -106 -54 -173.5t-181 -186.5 l-127 -115q-90 -82 -117 -125t-43 -127l-12 -59h-146z" />
<glyph unicode="@" horiz-adv-x="2048" d="M319 406q0 367 273.5 640t644.5 273q315 0 528 -186.5t213 -475.5q0 -270 -177 -463.5t-398 -193.5q-86 0 -118 45t-32 100q-76 -76 -131 -104.5t-135 -28.5q-119 0 -195.5 77t-76.5 216q0 231 167 450.5t363 219.5q106 0 157.5 -46t82.5 -106l45 111h176l-170 -424 q-53 -127 -89 -224.5t-36 -123.5q0 -55 62 -56q133 0 271 156t138 395q0 254 -185.5 405.5t-451.5 151.5q-297 0 -541.5 -250.5t-244.5 -555.5q0 -256 194.5 -421t517.5 -165q190 0 327.5 51t273.5 156l53 -47q-68 -76 -251 -165t-411 -89q-367 0 -605.5 189t-238.5 489z M879 233q0 -70 38.5 -103.5t104.5 -33.5q84 0 128 45t108.5 150.5t111.5 259.5t47 213q0 53 -32.5 92t-94.5 39q-135 0 -273 -247t-138 -415z" />
<glyph unicode="A" horiz-adv-x="1138" d="M18 0l727 1413h193l182 -1413h-153l-54 434h-516l-217 -434h-162zM463 567h436l-82 703z" />
<glyph unicode="B" horiz-adv-x="1099" d="M174 0l277 1413h311q178 0 281.5 -60.5t103.5 -238.5q0 -160 -90 -262t-185 -102q96 -29 154.5 -92.5t58.5 -186.5q0 -221 -131 -346t-411 -125h-369zM356 133h199q164 0 265.5 71.5t101.5 246.5q0 98 -68 159.5t-186 61.5h-205zM487 805h187q141 0 225 76.5t84 232.5 q0 100 -60.5 133t-201.5 33h-139z" />
<glyph unicode="C" horiz-adv-x="1099" d="M229 506q0 369 165 649.5t505 280.5q186 0 286.5 -94.5t100.5 -229.5q0 -14 -4 -43t-4 -41h-182q6 27 7 37t1 33q0 86 -59.5 145.5t-176.5 59.5q-227 0 -347 -249t-120 -536q0 -180 69 -293.5t247 -113.5q109 0 190.5 29.5t157.5 66.5l-33 -160q-78 -35 -167 -52.5 t-175 -17.5q-252 0 -356.5 142.5t-104.5 386.5z" />
<glyph unicode="D" horiz-adv-x="1175" d="M174 0l277 1413h315q229 0 348 -110.5t119 -354.5q0 -426 -179.5 -687t-543.5 -261h-336zM356 133h181q264 0 394 228.5t130 586.5q0 197 -93.5 264.5t-271.5 67.5h-116z" />
<glyph unicode="E" horiz-adv-x="948" d="M174 0l277 1413h684l-27 -133h-528l-93 -475h502l-24 -133h-504l-105 -539h545l-24 -133h-703z" />
<glyph unicode="F" horiz-adv-x="872" d="M174 0l277 1413h682l-25 -133h-528l-95 -475h504l-24 -133h-504l-131 -672h-156z" />
<glyph unicode="G" horiz-adv-x="1214" d="M223 483q0 381 167 667t491 286q188 0 300.5 -96.5t112.5 -239.5q0 -20 -4 -40t-6 -32h-182q10 31 10 64q0 86 -64.5 148.5t-183.5 62.5q-221 0 -345 -251t-124 -548q0 -227 81 -310t224 -83q74 0 136.5 15t117.5 56l97 482h-328l27 133h483l-135 -691q-59 -45 -169 -87 t-257 -42q-236 0 -342.5 135.5t-106.5 370.5z" />
<glyph unicode="H" horiz-adv-x="1251" d="M178 0l275 1413h155l-119 -614h586l119 614h156l-275 -1413h-155l129 666h-586l-129 -666h-156z" />
<glyph unicode="I" horiz-adv-x="530" d="M188 0l275 1413h155l-274 -1413h-156z" />
<glyph unicode="J" horiz-adv-x="720" d="M2 4l27 143q70 -25 98.5 -30.5t75.5 -5.5q158 0 207 72.5t79 226.5l195 1003h156l-201 -1032q-41 -209 -119 -306.5t-325 -97.5q-53 0 -93.5 5.5t-99.5 21.5z" />
<glyph unicode="K" horiz-adv-x="1062" d="M174 0l277 1413h155l-127 -637l4 -4l619 641h192l-667 -684l436 -729h-182l-416 692l-135 -692h-156z" />
<glyph unicode="L" horiz-adv-x="833" d="M178 0l275 1413h155l-250 -1280h508l-26 -133h-662z" />
<glyph unicode="M" horiz-adv-x="1630" d="M172 0l274 1413h236l166 -1218l641 1218h246l-275 -1413h-155l239 1235l-4 4l-645 -1239h-158l-166 1239l-243 -1239h-156z" />
<glyph unicode="N" horiz-adv-x="1290" d="M174 0l277 1413h198l346 -1216l242 1216h156l-277 -1413h-198l-355 1190l-233 -1190h-156z" />
<glyph unicode="O" horiz-adv-x="1214" d="M223 459q0 377 161 677t495 300q213 0 302 -130t89 -337q0 -381 -157 -686.5t-486 -305.5q-223 0 -313.5 130.5t-90.5 351.5zM395 455q0 -178 67.5 -261t178.5 -83q176 0 277.5 155.5t140.5 354t39 333.5q0 143 -50.5 246t-201.5 103q-172 0 -272.5 -154t-139.5 -350.5 t-39 -343.5z" />
<glyph unicode="P" horiz-adv-x="985" d="M174 0l277 1413h254q276 0 362 -83t86 -240q0 -236 -127 -347.5t-385 -111.5h-188l-123 -631h-156zM477 764h139q182 0 277.5 58.5t95.5 250.5q0 135 -82 171t-227 36h-100z" />
<glyph unicode="Q" horiz-adv-x="1251" d="M236 459q0 377 160.5 677t494.5 300q215 0 304 -130t89 -337q0 -260 -78 -490.5t-250 -369.5l5 -5l299 33l-27 -137h-580q-231 0 -324 123t-93 336zM408 455q0 -123 57 -222.5t209 -99.5q244 0 341 275.5t97 545.5q0 143 -50 246t-204 103q-172 0 -272.5 -154 t-139 -350.5t-38.5 -343.5z" />
<glyph unicode="R" horiz-adv-x="1099" d="M174 0l275 1413h286q217 0 334 -60.5t117 -246.5q0 -184 -94.5 -286.5t-257.5 -123.5q102 -35 141 -101.5t39 -213.5l10 -381h-156l-8 326q0 186 -59.5 242.5t-243.5 56.5h-104l-123 -625h-156zM477 758h117q199 0 313.5 69.5t114.5 257.5q0 111 -78 153t-229 42h-135z " />
<glyph unicode="S" horiz-adv-x="985" d="M102 23l31 163q74 -31 153 -53t175 -22q152 0 261 73.5t109 202.5q0 111 -139 213l-262 176q-141 115 -141 256q0 178 135 291t383 113q92 0 163.5 -11.5t131.5 -27.5l-31 -164q-57 25 -137 47.5t-168 22.5q-139 0 -226 -62.5t-87 -171.5q0 -106 135 -194.5t266 -172.5 q141 -117 141 -276q0 -207 -150.5 -328t-422.5 -121q-102 0 -175 13.5t-145 32.5z" />
<glyph unicode="T" horiz-adv-x="833" d="M248 1280l24 133h836l-27 -133h-338l-249 -1280h-156l248 1280h-338z" />
<glyph unicode="U" horiz-adv-x="1214" d="M233 301q0 47 8.5 99.5t16.5 97.5l178 915h156l-178 -917q-8 -45 -15.5 -92.5t-7.5 -79.5q0 -106 73 -159.5t179 -53.5q176 0 243.5 95t106.5 304l178 903h156l-178 -903q-68 -342 -186.5 -437.5t-327.5 -95.5q-172 0 -287 83t-115 241z" />
<glyph unicode="V" horiz-adv-x="1062" d="M240 1413h153l160 -1249l645 1249h174l-745 -1413h-191z" />
<glyph unicode="W" horiz-adv-x="1705" d="M328 0l22 1413h156l-31 -1218l4 -5l576 1223h149l103 -1223l446 1223h154l-525 -1413h-186l-104 1208l-580 -1208h-184z" />
<glyph unicode="X" horiz-adv-x="1062" d="M-6 0l598 741l-268 672h163l209 -530l420 530h178l-540 -672l301 -741h-164l-242 600l-475 -600h-180z" />
<glyph unicode="Y" d="M264 1413h170l228 -600l466 600h183l-596 -762l-127 -651h-156l127 651z" />
<glyph unicode="Z" horiz-adv-x="985" d="M49 0l25 133l901 1147h-643l26 133h822l-25 -133l-901 -1147h707l-27 -133h-885z" />
<glyph unicode="[" horiz-adv-x="606" d="M145 -279l359 1835h370l-24 -120h-219l-309 -1594h219l-25 -121h-371z" />
<glyph unicode="\" horiz-adv-x="606" d="M117 1559h145l479 -1840h-145z" />
<glyph unicode="]" horiz-adv-x="606" d="M-18 -279l24 121h219l310 1594h-220l25 120h371l-357 -1835h-372z" />
<glyph unicode="^" horiz-adv-x="757" d="M336 1090l258 323h123l131 -323h-125l-88 215l-174 -215h-125z" />
<glyph unicode="_" d="M0 -133h1024v-103h-1024v103z" />
<glyph unicode="`" horiz-adv-x="593" d="M334 1413h180l33 -268h-127z" />
<glyph unicode="a" horiz-adv-x="985" d="M172 315q0 246 113.5 464t316.5 218q92 0 151.5 -52t86.5 -122l30 152h146l-189 -975h-145l31 158l-4 4q-45 -84 -103.5 -134.5t-171.5 -50.5q-127 0 -194.5 92.5t-67.5 245.5zM332 336q0 -109 31.5 -175.5t121.5 -66.5q137 0 220 169t83 358q0 117 -47 188.5t-131 71.5 q-139 0 -208.5 -191.5t-69.5 -353.5z" />
<glyph unicode="b" horiz-adv-x="985" d="M209 297q0 70 18 170l185 946h145l-119 -598l4 -4q59 98 137 142t160 44q137 0 199.5 -101t62.5 -263q0 -260 -118.5 -458t-360.5 -198q-139 0 -226 80t-87 240zM350 330q0 -109 49.5 -172.5t135.5 -63.5q152 0 229.5 170t77.5 344q0 129 -33 201t-125 72 q-143 0 -238.5 -189.5t-95.5 -361.5z" />
<glyph unicode="c" horiz-adv-x="872" d="M182 387q0 238 125 424t363 186q141 0 218 -69.5t77 -175.5l-7 -74h-167l6 59q0 59 -36 101.5t-108 42.5q-135 0 -223 -129t-88 -324q0 -147 72.5 -240.5t251.5 -93.5q47 0 73.5 3t83.5 18l-22 -111q-47 -10 -97.5 -18.5t-97.5 -8.5q-199 0 -311.5 97.5t-112.5 312.5z " />
<glyph unicode="d" horiz-adv-x="985" d="M172 315q0 246 113.5 464t316.5 218q92 0 151.5 -52t86.5 -122l116 590h146l-275 -1413h-145l31 158l-4 4q-45 -84 -103.5 -134.5t-171.5 -50.5q-127 0 -194.5 92.5t-67.5 245.5zM332 336q0 -109 31.5 -175.5t121.5 -66.5q137 0 220 169t83 358q0 117 -47 188.5 t-131 71.5q-139 0 -208.5 -191.5t-69.5 -353.5z" />
<glyph unicode="e" horiz-adv-x="909" d="M184 385q0 248 116 430t345 182q135 0 219 -77.5t84 -198.5q0 -45 -4 -71.5t-16 -74.5h-566q-6 -29 -12 -67.5t-6 -83.5q0 -168 77 -249t243 -81q43 0 75.5 5t81.5 22l-22 -115q-57 -14 -108.5 -21.5t-100.5 -7.5q-182 0 -294 91.5t-112 316.5zM389 690h410l4 37 q0 72 -44 113t-122 41q-106 0 -160.5 -53.5t-87.5 -137.5z" />
<glyph unicode="f" horiz-adv-x="645" d="M219 0l166 860h-162l23 115h162l20 98q35 182 119 272.5t276 90.5q86 0 158 -19l-23 -123q-43 12 -74.5 18.5t-78.5 6.5q-119 0 -165 -63.5t-67 -176.5l-20 -104h276l-22 -115h-277l-165 -860h-146z" />
<glyph unicode="g" horiz-adv-x="985" d="M74 -369l26 140q43 -20 100.5 -38t129.5 -18q170 0 244.5 65.5t107.5 219.5l33 168l-4 4q-45 -72 -112 -122t-181 -50q-113 0 -176.5 93t-63.5 247q0 242 112.5 449.5t311.5 207.5q96 0 155.5 -55t82.5 -121l32 154h146l-191 -975q-39 -195 -146.5 -298t-350.5 -103 q-80 0 -161 15t-95 17zM338 356q0 -100 32.5 -169.5t106.5 -69.5q139 0 225 162.5t86 341.5q0 115 -48 187.5t-128 72.5q-139 0 -206.5 -186.5t-67.5 -338.5z" />
<glyph unicode="h" d="M164 0l274 1413h146l-125 -633l4 -4q76 111 145.5 166t198.5 55q90 0 143.5 -61.5t53.5 -157.5q0 -41 -4.5 -68.5t-14.5 -80.5l-121 -629h-145l112 582q2 6 9.5 65.5t7.5 97.5q0 53 -31 85t-82 32q-137 0 -230 -166t-132 -364l-64 -332h-145z" />
<glyph unicode="i" horiz-adv-x="493" d="M174 0l191 975h145l-191 -975h-145zM393 1229l35 184h184l-34 -184h-185z" />
<glyph unicode="j" horiz-adv-x="493" d="M-168 -395l25 121q45 -10 94 -11q117 0 162 66.5t73 218.5l191 975h145l-190 -975q-39 -207 -126 -304t-292 -97zM406 1229l36 184h185l-37 -184h-184z" />
<glyph unicode="k" horiz-adv-x="872" d="M162 0l274 1413h146l-166 -846l4 -4l409 412h177l-441 -438l289 -537h-168l-276 518l-103 -518h-145z" />
<glyph unicode="l" horiz-adv-x="493" d="M174 0l275 1413h145l-275 -1413h-145z" />
<glyph unicode="m" horiz-adv-x="1517" d="M164 0l188 975h146l-39 -195l4 -4q70 109 136.5 165t186.5 56q86 0 136.5 -58t50.5 -161q78 111 145.5 165t194.5 54q86 0 137 -59t51 -150q0 -25 -8 -71.5t-14 -87.5l-121 -629h-146l113 582q10 51 15.5 84.5t5.5 74.5q0 55 -29 88t-76 33q-131 0 -218 -163.5 t-126 -366.5l-63 -332h-146l113 582q6 39 14 86t8 73q0 55 -28.5 88t-77.5 33q-131 0 -218 -163.5t-126 -366.5l-64 -332h-145z" />
<glyph unicode="n" d="M164 0l188 975h146l-39 -195l4 -4q76 111 145.5 166t198.5 55q90 0 143.5 -61.5t53.5 -157.5q0 -25 -4.5 -58.5t-14.5 -90.5l-123 -629h-145l112 582q18 88 19 163q0 53 -31 85t-82 32q-137 0 -230 -166t-132 -364l-64 -332h-145z" />
<glyph unicode="o" horiz-adv-x="985" d="M176 336q0 262 121 461.5t381 199.5q156 0 241 -91t85 -261q0 -270 -120 -469t-372 -199q-156 0 -246 88.5t-90 270.5zM336 352q0 -109 45 -183.5t147 -74.5q170 0 243 160t73 360q0 119 -37 193t-148 74q-164 0 -243.5 -166t-79.5 -363z" />
<glyph unicode="p" horiz-adv-x="985" d="M86 -438l274 1413h146l-31 -158l4 -4q45 84 103.5 134t171.5 50q129 0 195.5 -92t66.5 -246q0 -250 -112.5 -466t-317.5 -216q-92 0 -151.5 52.5t-86.5 122.5l-117 -590h-145zM399 354q0 -117 47 -188.5t129 -71.5q141 0 211 190.5t70 354.5q0 109 -31.5 175.5 t-122.5 66.5q-137 0 -220 -169t-83 -358z" />
<glyph unicode="q" horiz-adv-x="985" d="M172 317q0 244 113.5 462t316.5 218q100 0 160.5 -55t77.5 -119l30 152h146l-275 -1413h-145l117 596l-4 4q-41 -80 -101.5 -132.5t-173.5 -52.5q-127 0 -194.5 93.5t-67.5 246.5zM332 334q0 -106 31.5 -173t119.5 -67q139 0 222 171t83 356q0 109 -46 184.5t-130 75.5 q-141 0 -210.5 -191.5t-69.5 -355.5z" />
<glyph unicode="r" horiz-adv-x="645" d="M164 0l188 975h146l-39 -189l4 -4q53 104 138 159.5t224 55.5l-28 -149q-209 0 -295 -142.5t-123 -345.5l-70 -360h-145z" />
<glyph unicode="s" horiz-adv-x="757" d="M80 14l26 136q43 -20 110 -38t136 -18q109 0 184.5 41t75.5 133q0 76 -196.5 188.5t-196.5 252.5q0 147 106.5 217.5t252.5 70.5q70 0 125 -10t126 -35l-26 -125q-47 20 -107.5 37t-124.5 17q-88 0 -145 -35t-57 -107q0 -68 196.5 -178t196.5 -254q0 -166 -121 -248 t-295 -82q-70 0 -123 7.5t-143 29.5z" />
<glyph unicode="t" horiz-adv-x="681" d="M238 860l22 115h158l43 227l162 88l-60 -315h260l-22 -115h-260l-88 -459q-8 -37 -19.5 -109.5t-11.5 -82.5q0 -115 131 -115q47 0 94 12l-24 -118q-45 -8 -64.5 -9.5t-32.5 -1.5q-106 0 -179 39t-73 168q0 27 4.5 58.5t10.5 66.5l106 551h-157z" />
<glyph unicode="u" d="M203 197q0 41 4 68.5t14 80.5l123 629h145l-114 -582q-6 -33 -11.5 -78t-5.5 -88q0 -53 31 -83.5t82 -30.5q135 0 228.5 165.5t131.5 364.5l68 332h145l-194 -975h-145l38 195l-4 4q-74 -109 -143.5 -165.5t-196.5 -56.5q-90 0 -143 61.5t-53 158.5z" />
<glyph unicode="v" horiz-adv-x="872" d="M207 975h143l135 -770l408 770h154l-521 -975h-141z" />
<glyph unicode="w" horiz-adv-x="1402" d="M276 975h136l32 -758l379 758h121l96 -758l332 758h135l-417 -975h-146l-92 748l-379 -748h-151z" />
<glyph unicode="x" horiz-adv-x="909" d="M18 0l461 516l-231 459h158l167 -340l293 340h181l-408 -467l254 -508h-156l-196 389l-342 -389h-181z" />
<glyph unicode="y" horiz-adv-x="872" d="M162 -401l215 401l-176 975h149l139 -780l414 780h148l-740 -1376h-149z" />
<glyph unicode="z" horiz-adv-x="833" d="M63 0l23 115l653 745h-473l23 115h643l-23 -115l-649 -745h524l-22 -115h-699z" />
<glyph unicode="{" d="M369 440v49q94 31 159.5 97.5t65.5 163.5q0 37 -11.5 89t-21.5 103t-17 99.5t-7 97.5q0 141 136 244.5t296 103.5v-51q-106 -25 -162.5 -105t-56.5 -174q0 -43 5 -91t10 -93t9 -89t4 -63q0 -150 -90 -224.5t-227 -131.5q131 -57 224 -136t93 -220q0 -31 -2 -55.5t-10 -90 t-12 -108.5t-4 -82q0 -98 55 -176t164 -103v-51q-160 0 -296 102.5t-136 245.5q0 57 3 83t17 95.5t25.5 126t11.5 84.5q0 92 -64.5 161t-160.5 99z" />
<glyph unicode="|" horiz-adv-x="681" d="M381 -377v2083h100v-2083h-100z" />
<glyph unicode="}" d="M346 -506q106 25 162.5 104.5t56.5 174.5q0 43 -5 91t-10 93t-9 89t-4 63q0 143 91 220t226 136q-133 55 -225 132t-92 224q0 31 2 55.5t10 90t12 108.5t4 82q0 98 -55 176t-164 103v51q160 0 296 -102.5t136 -245.5q0 -57 -9 -111.5t-17.5 -95.5t-19.5 -97.5t-11 -84.5 q0 -98 63.5 -164t161.5 -97v-49q-92 -29 -158.5 -99.5t-66.5 -160.5q0 -37 11 -89t21.5 -103t17.5 -99.5t7 -97.5q0 -141 -136 -244.5t-296 -103.5v51z" />
<glyph unicode="~" horiz-adv-x="1175" d="M176 350l10 92q14 121 71.5 197t180.5 76q49 0 93 -23.5t90 -62.5l182 -158q33 -29 62.5 -48.5t56.5 -19.5q100 0 122 181l9 63h123l-9 -74q-14 -121 -73.5 -205.5t-182.5 -84.5q-53 0 -98 22.5t-86 59.5l-186 163q-35 31 -60.5 48.5t-50.5 17.5q-55 0 -84 -44t-37 -124 l-10 -76h-123z" />
<glyph unicode="&#xa1;" horiz-adv-x="569" d="M68 -279l217 1031h137l-184 -1031h-170zM287 932l39 203h202l-39 -203h-202z" />
<glyph unicode="&#xa2;" horiz-adv-x="909" d="M180 344q0 258 111.5 445.5t331.5 207.5l30 158h90l-30 -158q121 -12 185.5 -78.5t64.5 -166.5l-7 -74h-168l7 59q0 76 -21.5 118t-77.5 54l-159 -823q49 -14 127 -14q41 0 80.5 8t82.5 22l-18 -92q-45 -12 -102.5 -22.5t-102.5 -10.5l-88 5l-35 -177h-90l37 193 q-119 33 -183.5 117t-64.5 229zM338 385q0 -86 26.5 -152.5t88.5 -107.5l153 784q-119 -27 -193.5 -179t-74.5 -345z" />
<glyph unicode="&#xa3;" horiz-adv-x="909" d="M186 614l23 113h137l43 221q41 211 121 313.5t289 102.5q139 0 225 -68.5t86 -189.5q0 -25 -4 -37h-162l6 37q0 59 -45 98t-127 39q-119 0 -163 -66.5t-72 -213.5l-45 -236h245l-22 -113h-246l-92 -481h524l-26 -133h-676l119 614h-138z" />
<glyph unicode="&#xa4;" d="M168 1073l65 64l140 -140q59 43 135 69t145 26q76 0 146.5 -24t134.5 -71l139 140l66 -64l-142 -141q49 -53 73 -129t24 -156q0 -76 -23.5 -149.5t-71.5 -128.5l138 -136l-62 -63l-135 135q-66 -49 -136.5 -72.5t-150.5 -23.5q-78 0 -152.5 25.5t-133.5 70.5l-136 -135 l-61 63l137 136q-45 51 -70.5 126.5t-25.5 151.5q0 158 98 285zM295 647q0 -145 104.5 -249.5t253.5 -104.5q145 0 251 103.5t106 250.5t-104.5 254t-252.5 107q-147 0 -252.5 -105.5t-105.5 -255.5z" />
<glyph unicode="&#xa5;" d="M264 1413h170l228 -600l466 600h183l-596 -764h231l-18 -94h-232l-22 -109h233l-18 -94h-234l-67 -352h-156l68 352h-230l19 94h229l23 109h-232l19 94h231z" />
<glyph unicode="&#xa7;" horiz-adv-x="948" d="M164 20l33 164q70 -49 136 -72.5t126 -23.5q104 0 175 50t71 124q0 92 -242 194.5t-242 237.5q0 82 40 141.5t161 157.5q-27 43 -41 74t-14 84q0 139 114.5 212t261.5 73q104 0 167 -13.5t137 -36.5l-31 -149q-53 35 -122 61.5t-142 26.5q-88 0 -155 -40t-67 -118 q0 -80 238 -180t238 -237q0 -102 -59.5 -168t-143.5 -123q31 -29 52.5 -67t21.5 -95q0 -145 -135.5 -232.5t-315.5 -87.5q-90 0 -151.5 13.5t-110.5 29.5zM375 762q0 -88 143 -162q106 -49 215 -98q41 29 80 76t39 104q0 94 -171 172t-194 90q-41 -35 -76.5 -80t-35.5 -102z " />
<glyph unicode="&#xa8;" horiz-adv-x="593" d="M236 1167l34 181h181l-35 -181h-180zM598 1167l35 181h180l-35 -181h-180z" />
<glyph unicode="&#xa9;" d="M236 954q0 201 140 341.5t341 140.5q199 0 340 -141.5t141 -340.5t-141.5 -340t-339.5 -141q-201 0 -341 140t-140 341zM307 954q0 -170 120 -289.5t290 -119.5t289.5 119.5t119.5 289.5t-119.5 290t-289.5 120t-290 -120t-120 -290zM461 963q0 117 83 195.5t195 78.5 q76 0 116 -21.5t79 -58.5l-51 -67q-20 18 -54 40.5t-90 22.5q-72 0 -130 -52t-58 -138q0 -88 57.5 -139.5t124.5 -51.5q55 0 86 16.5t64 45.5l51 -66q-43 -41 -92 -60.5t-103 -19.5q-113 0 -195.5 79t-82.5 196z" />
<glyph unicode="&#xaa;" horiz-adv-x="569" d="M223 770q0 127 60.5 250t175.5 123q53 0 84.5 -29t46.5 -70l18 86h78l-104 -538h-78l18 86l-4 4q-25 -45 -62.5 -72.5t-88.5 -27.5q-143 0 -144 188zM309 778q0 -55 18.5 -92t67.5 -37q72 0 119 91t47 196q0 57 -25.5 98t-70.5 41q-78 0 -117 -103.5t-39 -193.5z" />
<glyph unicode="&#xab;" horiz-adv-x="720" d="M156 500l225 387h149l-202 -387l55 -379h-150zM436 500l226 387h149l-203 -387l56 -379h-150z" />
<glyph unicode="&#xac;" horiz-adv-x="1175" d="M231 436v125h945v-424h-125v299h-820z" />
<glyph unicode="&#xad;" horiz-adv-x="833" d="M190 436l29 144h623l-27 -144h-625z" />
<glyph unicode="&#xae;" d="M236 954q0 201 140 341.5t341 140.5q199 0 340 -141.5t141 -340.5t-141.5 -340t-339.5 -141q-201 0 -341 140t-140 341zM307 954q0 -170 120 -289.5t290 -119.5t289.5 119.5t119.5 289.5t-119.5 290t-289.5 120t-290 -120t-120 -290zM535 713v508h170q92 0 149 -33 t57 -131q0 -57 -22.5 -80t-65.5 -45l95 -219h-105l-78 205h-108v-205h-92zM627 999h108q39 0 59.5 15.5t20.5 50.5q0 68 -86 68h-102v-134z" />
<glyph unicode="&#xaf;" horiz-adv-x="593" d="M238 1145l22 123h518l-24 -123h-516z" />
<glyph unicode="&#xb0;" horiz-adv-x="681" d="M328 1096q0 92 66.5 158.5t160.5 66.5q92 0 158.5 -66.5t66.5 -158.5q0 -94 -66.5 -161t-158.5 -67q-94 0 -160.5 67t-66.5 161zM424 1096q0 -53 39 -92t92 -39q51 0 90 38.5t39 92.5q0 53 -38 91t-91 38t-92 -37t-39 -92z" />
<glyph unicode="&#xb1;" horiz-adv-x="1175" d="M74 -213l24 125h946l-24 -125h-946zM201 436l24 125h398l77 402h140l-78 -402h407l-22 -125h-410l-84 -436h-139l84 436h-397z" />
<glyph unicode="&#xb4;" horiz-adv-x="593" d="M449 1145l141 268h180l-192 -268h-129z" />
<glyph unicode="&#xb6;" d="M248 918q0 299 222 397t488 98h142v-80h-144v-1773h-75v1771l-103 -10v-1761h-76v895q-244 47 -349 170t-105 293z" />
<glyph unicode="&#xb7;" horiz-adv-x="417" d="M215 549l39 201h201l-39 -201h-201z" />
<glyph unicode="&#xb8;" horiz-adv-x="593" d="M145 -438l21 104q20 -20 49 -34.5t59 -14.5q43 0 80 32t37 81q0 47 -34.5 64.5t-84.5 17.5l-51 -2l92 223h86l-63 -152q172 0 172 -135q0 -88 -68.5 -149.5t-171.5 -61.5q-45 0 -68.5 6t-54.5 21z" />
<glyph unicode="&#xba;" horiz-adv-x="569" d="M225 780q0 145 66.5 254t214.5 109q82 0 128 -52.5t46 -142.5q0 -152 -65.5 -259t-206.5 -107q-86 0 -134.5 52t-48.5 146zM311 786q0 -59 25 -98t84 -39q94 0 134 87t40 196q0 63 -20.5 103t-79.5 40q-94 0 -138.5 -88t-44.5 -201z" />
<glyph unicode="&#xbb;" horiz-adv-x="720" d="M111 121l202 387l-55 379h150l77 -379l-225 -387h-149zM385 121l203 387l-56 379h150l78 -379l-225 -387h-150z" />
<glyph unicode="&#xbf;" horiz-adv-x="833" d="M27 -35q0 106 54 174t181 187l127 114q90 82 116.5 125t43.5 127l12 60h146l-17 -93q-20 -98 -51 -147t-131 -141l-143 -131q-88 -80 -130 -130.5t-42 -115.5q0 -82 66.5 -122t148.5 -40q74 0 139 16.5t131 49.5l-31 -154q-86 -25 -150.5 -35t-119.5 -10q-162 0 -256 77 t-94 189zM569 932l39 203h203l-39 -203h-203z" />
<glyph unicode="&#xc0;" horiz-adv-x="1138" d="M18 0l727 1413h193l182 -1413h-153l-54 434h-516l-217 -434h-162zM463 567h436l-82 703zM688 1851h180l33 -268h-127z" />
<glyph unicode="&#xc1;" horiz-adv-x="1138" d="M18 0l727 1413h193l182 -1413h-153l-54 434h-516l-217 -434h-162zM463 567h436l-82 703zM793 1583l141 268h180l-192 -268h-129z" />
<glyph unicode="&#xc2;" horiz-adv-x="1138" d="M18 0l727 1413h193l182 -1413h-153l-54 434h-516l-217 -434h-162zM463 567h436l-82 703zM596 1583l231 268h152l129 -268h-125l-99 164l-163 -164h-125z" />
<glyph unicode="&#xc3;" horiz-adv-x="1138" d="M18 0l727 1413h193l182 -1413h-153l-54 434h-516l-217 -434h-162zM463 567h436l-82 703zM565 1583q25 96 55.5 160.5t106.5 64.5q43 0 120 -54t97 -54q51 0 64 98h86q-16 -115 -63.5 -171t-104.5 -56q-39 0 -125 55t-88 55q-25 0 -40 -28.5t-22 -69.5h-86z" />
<glyph unicode="&#xc4;" horiz-adv-x="1138" d="M18 0l727 1413h193l182 -1413h-153l-54 434h-516l-217 -434h-162zM463 567h436l-82 703zM580 1605l34 181h181l-35 -181h-180zM942 1605l35 181h180l-35 -181h-180z" />
<glyph unicode="&#xc5;" horiz-adv-x="1138" d="M18 0l727 1413h193l182 -1413h-153l-54 434h-516l-217 -434h-162zM463 567h436l-82 703zM690 1726q0 72 51.5 123t122.5 51q72 0 123.5 -51t51.5 -123q0 -74 -51.5 -125t-123.5 -51t-123 51t-51 125zM776 1726q0 -37 24.5 -63.5t63.5 -26.5q35 0 61.5 26.5t26.5 63.5 q0 35 -24.5 61.5t-63.5 26.5q-35 0 -61.5 -26.5t-26.5 -61.5z" />
<glyph unicode="&#xc6;" horiz-adv-x="1630" d="M0 0l1083 1413h750l-25 -133h-544l-68 -535h494l-27 -133h-483l-60 -479h482l-27 -133h-623l76 612h-387l-455 -612h-186zM739 745h305l64 492l-4 4z" />
<glyph unicode="&#xc7;" horiz-adv-x="1099" d="M229 506q0 369 165 649.5t505 280.5q186 0 286.5 -94.5t100.5 -229.5q0 -14 -4 -43t-4 -41h-182q6 27 7 37t1 33q0 86 -59.5 145.5t-176.5 59.5q-227 0 -347 -249t-120 -536q0 -180 69 -293.5t247 -113.5q109 0 190.5 29.5t157.5 66.5l-33 -160q-78 -35 -167 -52.5 t-175 -17.5q-252 0 -356.5 142.5t-104.5 386.5zM399 -438l21 104q20 -20 49 -34.5t59 -14.5q43 0 80 32t37 81q0 47 -34.5 64.5t-84.5 17.5l-51 -2l92 223h86l-63 -152q172 0 172 -135q0 -88 -68.5 -149.5t-171.5 -61.5q-45 0 -68.5 6t-54.5 21z" />
<glyph unicode="&#xc8;" horiz-adv-x="948" d="M174 0l277 1413h684l-27 -133h-528l-93 -475h502l-24 -133h-504l-105 -539h545l-24 -133h-703zM625 1851h180l33 -268h-127z" />
<glyph unicode="&#xc9;" horiz-adv-x="948" d="M174 0l277 1413h684l-27 -133h-528l-93 -475h502l-24 -133h-504l-105 -539h545l-24 -133h-703zM719 1583l141 268h180l-192 -268h-129z" />
<glyph unicode="&#xca;" horiz-adv-x="948" d="M174 0l277 1413h684l-27 -133h-528l-93 -475h502l-24 -133h-504l-105 -539h545l-24 -133h-703zM543 1583l231 268h152l129 -268h-125l-99 164l-163 -164h-125z" />
<glyph unicode="&#xcb;" horiz-adv-x="948" d="M174 0l277 1413h684l-27 -133h-528l-93 -475h502l-24 -133h-504l-105 -539h545l-24 -133h-703zM547 1605l34 181h181l-35 -181h-180zM909 1605l35 181h180l-35 -181h-180z" />
<glyph unicode="&#xcc;" horiz-adv-x="530" d="M188 0l275 1413h155l-274 -1413h-156zM385 1851h180l33 -268h-127z" />
<glyph unicode="&#xcd;" horiz-adv-x="530" d="M188 0l275 1413h155l-274 -1413h-156zM490 1583l141 268h180l-192 -268h-129z" />
<glyph unicode="&#xce;" horiz-adv-x="530" d="M188 0l275 1413h155l-274 -1413h-156zM283 1583l231 268h152l129 -268h-125l-99 164l-163 -164h-125z" />
<glyph unicode="&#xcf;" horiz-adv-x="530" d="M188 0l275 1413h155l-274 -1413h-156zM277 1605l34 181h181l-35 -181h-180zM639 1605l35 181h180l-35 -181h-180z" />
<glyph unicode="&#xd1;" horiz-adv-x="1290" d="M174 0l277 1413h198l346 -1216l242 1216h156l-277 -1413h-198l-355 1190l-233 -1190h-156zM651 1583q25 96 55.5 160.5t106.5 64.5q43 0 120 -54t97 -54q51 0 64 98h86q-16 -115 -63.5 -171t-104.5 -56q-39 0 -125 55t-88 55q-25 0 -40 -28.5t-22 -69.5h-86z" />
<glyph unicode="&#xd2;" horiz-adv-x="1214" d="M223 459q0 377 161 677t495 300q213 0 302 -130t89 -337q0 -381 -157 -686.5t-486 -305.5q-223 0 -313.5 130.5t-90.5 351.5zM395 455q0 -178 67.5 -261t178.5 -83q176 0 277.5 155.5t140.5 354t39 333.5q0 143 -50.5 246t-201.5 103q-172 0 -272.5 -154t-139.5 -350.5 t-39 -343.5zM686 1851h180l33 -268h-127z" />
<glyph unicode="&#xd3;" horiz-adv-x="1214" d="M223 459q0 377 161 677t495 300q213 0 302 -130t89 -337q0 -381 -157 -686.5t-486 -305.5q-223 0 -313.5 130.5t-90.5 351.5zM395 455q0 -178 67.5 -261t178.5 -83q176 0 277.5 155.5t140.5 354t39 333.5q0 143 -50.5 246t-201.5 103q-172 0 -272.5 -154t-139.5 -350.5 t-39 -343.5zM791 1583l141 268h180l-192 -268h-129z" />
<glyph unicode="&#xd4;" horiz-adv-x="1214" d="M223 459q0 377 161 677t495 300q213 0 302 -130t89 -337q0 -381 -157 -686.5t-486 -305.5q-223 0 -313.5 130.5t-90.5 351.5zM395 455q0 -178 67.5 -261t178.5 -83q176 0 277.5 155.5t140.5 354t39 333.5q0 143 -50.5 246t-201.5 103q-172 0 -272.5 -154t-139.5 -350.5 t-39 -343.5zM615 1583l231 268h152l129 -268h-125l-99 164l-163 -164h-125z" />
<glyph unicode="&#xd5;" horiz-adv-x="1214" d="M223 459q0 377 161 677t495 300q213 0 302 -130t89 -337q0 -381 -157 -686.5t-486 -305.5q-223 0 -313.5 130.5t-90.5 351.5zM395 455q0 -178 67.5 -261t178.5 -83q176 0 277.5 155.5t140.5 354t39 333.5q0 143 -50.5 246t-201.5 103q-172 0 -272.5 -154t-139.5 -350.5 t-39 -343.5zM593 1583q25 96 55.5 160.5t106.5 64.5q43 0 120 -54t97 -54q51 0 64 98h86q-16 -115 -63.5 -171t-104.5 -56q-39 0 -125 55t-88 55q-25 0 -40 -28.5t-22 -69.5h-86z" />
<glyph unicode="&#xd6;" horiz-adv-x="1214" d="M223 459q0 377 161 677t495 300q213 0 302 -130t89 -337q0 -381 -157 -686.5t-486 -305.5q-223 0 -313.5 130.5t-90.5 351.5zM395 455q0 -178 67.5 -261t178.5 -83q176 0 277.5 155.5t140.5 354t39 333.5q0 143 -50.5 246t-201.5 103q-172 0 -272.5 -154t-139.5 -350.5 t-39 -343.5zM588 1605l34 181h181l-35 -181h-180zM950 1605l35 181h180l-35 -181h-180z" />
<glyph unicode="&#xd8;" horiz-adv-x="1214" d="M117 -31l155 207q-27 57 -38 125t-11 158q0 377 161 677t495 300q176 0 274 -99l121 160l80 -51l-144 -189q33 -59 46.5 -129.5t13.5 -158.5q0 -381 -157 -686.5t-486 -305.5q-100 0 -176 31t-123 84l-131 -174zM395 413.5q0 -16.5 8 -65.5l644 850q-29 47 -78 76 t-123 29q-172 0 -272.5 -154t-139.5 -350.5t-39 -343.5v-41.5zM438 238q29 -59 78 -93t125 -34q176 0 277.5 155.5t140.5 354t39 333.5q0 37 -2 70t-11 68z" />
<glyph unicode="&#xd9;" horiz-adv-x="1214" d="M233 301q0 47 8.5 99.5t16.5 97.5l178 915h156l-178 -917q-8 -45 -15.5 -92.5t-7.5 -79.5q0 -106 73 -159.5t179 -53.5q176 0 243.5 95t106.5 304l178 903h156l-178 -903q-68 -342 -186.5 -437.5t-327.5 -95.5q-172 0 -287 83t-115 241zM707 1851h180l33 -268h-127z" />
<glyph unicode="&#xda;" horiz-adv-x="1214" d="M233 301q0 47 8.5 99.5t16.5 97.5l178 915h156l-178 -917q-8 -45 -15.5 -92.5t-7.5 -79.5q0 -106 73 -159.5t179 -53.5q176 0 243.5 95t106.5 304l178 903h156l-178 -903q-68 -342 -186.5 -437.5t-327.5 -95.5q-172 0 -287 83t-115 241zM801 1583l141 268h180l-192 -268 h-129z" />
<glyph unicode="&#xdb;" horiz-adv-x="1214" d="M233 301q0 47 8.5 99.5t16.5 97.5l178 915h156l-178 -917q-8 -45 -15.5 -92.5t-7.5 -79.5q0 -106 73 -159.5t179 -53.5q176 0 243.5 95t106.5 304l178 903h156l-178 -903q-68 -342 -186.5 -437.5t-327.5 -95.5q-172 0 -287 83t-115 241zM594 1583l231 268h152l129 -268 h-125l-99 164l-163 -164h-125z" />
<glyph unicode="&#xdc;" horiz-adv-x="1214" d="M233 301q0 47 8.5 99.5t16.5 97.5l178 915h156l-178 -917q-8 -45 -15.5 -92.5t-7.5 -79.5q0 -106 73 -159.5t179 -53.5q176 0 243.5 95t106.5 304l178 903h156l-178 -903q-68 -342 -186.5 -437.5t-327.5 -95.5q-172 0 -287 83t-115 241zM609 1605l34 181h181l-35 -181 h-180zM971 1605l35 181h180l-35 -181h-180z" />
<glyph unicode="&#xdf;" horiz-adv-x="1062" d="M164 0l192 997q41 207 124 323t296 116q166 0 248 -84t82 -207q0 -158 -85 -256t-185 -117q86 -27 152.5 -85t66.5 -195q0 -207 -113 -361t-364 -154q-39 0 -73 5.5t-85 17.5l22 121q74 -27 140 -27q160 0 236.5 112.5t76.5 262.5q0 135 -68.5 187.5t-187.5 52.5l20 108 q145 0 216 86t71 230q0 72 -46 129t-142 57q-129 0 -178.5 -82t-77.5 -240l-193 -997h-145z" />
<glyph unicode="&#xe0;" horiz-adv-x="985" d="M172 315q0 246 113.5 464t316.5 218q92 0 151.5 -52t86.5 -122l30 152h146l-189 -975h-145l31 158l-4 4q-45 -84 -103.5 -134.5t-171.5 -50.5q-127 0 -194.5 92.5t-67.5 245.5zM332 336q0 -109 31.5 -175.5t121.5 -66.5q137 0 220 169t83 358q0 117 -47 188.5t-131 71.5 q-139 0 -208.5 -191.5t-69.5 -353.5zM531 1413h180l33 -268h-127z" />
<glyph unicode="&#xe1;" horiz-adv-x="985" d="M172 315q0 246 113.5 464t316.5 218q92 0 151.5 -52t86.5 -122l30 152h146l-189 -975h-145l31 158l-4 4q-45 -84 -103.5 -134.5t-171.5 -50.5q-127 0 -194.5 92.5t-67.5 245.5zM332 336q0 -109 31.5 -175.5t121.5 -66.5q137 0 220 169t83 358q0 117 -47 188.5t-131 71.5 q-139 0 -208.5 -191.5t-69.5 -353.5zM646 1145l141 268h180l-192 -268h-129z" />
<glyph unicode="&#xe2;" horiz-adv-x="985" d="M172 315q0 246 113.5 464t316.5 218q92 0 151.5 -52t86.5 -122l30 152h146l-189 -975h-145l31 158l-4 4q-45 -84 -103.5 -134.5t-171.5 -50.5q-127 0 -194.5 92.5t-67.5 245.5zM332 336q0 -109 31.5 -175.5t121.5 -66.5q137 0 220 169t83 358q0 117 -47 188.5t-131 71.5 q-139 0 -208.5 -191.5t-69.5 -353.5zM439 1145l231 268h152l129 -268h-125l-99 164l-163 -164h-125z" />
<glyph unicode="&#xe3;" horiz-adv-x="985" d="M172 315q0 246 113.5 464t316.5 218q92 0 151.5 -52t86.5 -122l30 152h146l-189 -975h-145l31 158l-4 4q-45 -84 -103.5 -134.5t-171.5 -50.5q-127 0 -194.5 92.5t-67.5 245.5zM332 336q0 -109 31.5 -175.5t121.5 -66.5q137 0 220 169t83 358q0 117 -47 188.5t-131 71.5 q-139 0 -208.5 -191.5t-69.5 -353.5zM428 1145q25 96 55.5 160.5t106.5 64.5q43 0 120 -54t97 -54q51 0 64 98h86q-16 -115 -63.5 -171t-104.5 -56q-39 0 -125 55t-88 55q-25 0 -40 -28.5t-22 -69.5h-86z" />
<glyph unicode="&#xe4;" horiz-adv-x="985" d="M172 315q0 246 113.5 464t316.5 218q92 0 151.5 -52t86.5 -122l30 152h146l-189 -975h-145l31 158l-4 4q-45 -84 -103.5 -134.5t-171.5 -50.5q-127 0 -194.5 92.5t-67.5 245.5zM332 336q0 -109 31.5 -175.5t121.5 -66.5q137 0 220 169t83 358q0 117 -47 188.5t-131 71.5 q-139 0 -208.5 -191.5t-69.5 -353.5zM433 1167l34 181h181l-35 -181h-180zM795 1167l35 181h180l-35 -181h-180z" />
<glyph unicode="&#xe5;" horiz-adv-x="985" d="M172 315q0 246 113.5 464t316.5 218q92 0 151.5 -52t86.5 -122l30 152h146l-189 -975h-145l31 158l-4 4q-45 -84 -103.5 -134.5t-171.5 -50.5q-127 0 -194.5 92.5t-67.5 245.5zM332 336q0 -109 31.5 -175.5t121.5 -66.5q137 0 220 169t83 358q0 117 -47 188.5t-131 71.5 q-139 0 -208.5 -191.5t-69.5 -353.5zM553 1288q0 72 51.5 123t122.5 51q72 0 123.5 -51t51.5 -123q0 -74 -51.5 -125t-123.5 -51t-123 51t-51 125zM639 1288q0 -37 24.5 -63.5t63.5 -26.5q35 0 61.5 26.5t26.5 63.5q0 35 -24.5 61.5t-63.5 26.5q-35 0 -61.5 -26.5 t-26.5 -61.5z" />
<glyph unicode="&#xe6;" horiz-adv-x="1441" d="M164 315q0 248 112.5 465t315.5 217q94 0 152.5 -51t84.5 -123l33 152h127l-22 -109l4 -4q43 63 106.5 99t139.5 36q131 0 205.5 -76.5t74.5 -199.5q0 -96 -35 -205h-557q-6 -39 -10 -67.5t-4 -47.5q0 -307 297 -307q86 0 182 27l-22 -115q-57 -14 -108.5 -21.5 t-100.5 -7.5q-96 0 -183.5 43t-126.5 127l-30 -147h-127l33 158l-5 4q-47 -84 -105 -134.5t-171 -50.5q-127 0 -193.5 92.5t-66.5 245.5zM324 336q0 -109 31.5 -175.5t119.5 -66.5q137 0 221 169t84 358q0 117 -47 188.5t-131 71.5q-139 0 -208.5 -192.5t-69.5 -352.5z M930 631h413q4 20 6.5 40.5t2.5 49.5q0 74 -39 117t-105 43q-115 0 -176 -66.5t-102 -183.5z" />
<glyph unicode="&#xe7;" horiz-adv-x="872" d="M182 387q0 238 125 424t363 186q141 0 218 -69.5t77 -175.5l-7 -74h-167l6 59q0 59 -36 101.5t-108 42.5q-135 0 -223 -129t-88 -324q0 -147 72.5 -240.5t251.5 -93.5q47 0 73.5 3t83.5 18l-22 -111q-47 -10 -97.5 -18.5t-97.5 -8.5q-199 0 -311.5 97.5t-112.5 312.5z M284 -438l21 104q20 -20 49 -34.5t59 -14.5q43 0 80 32t37 81q0 47 -34.5 64.5t-84.5 17.5l-51 -2l92 223h86l-63 -152q172 0 172 -135q0 -88 -68.5 -149.5t-171.5 -61.5q-45 0 -68.5 6t-54.5 21z" />
<glyph unicode="&#xe8;" horiz-adv-x="909" d="M184 385q0 248 116 430t345 182q135 0 219 -77.5t84 -198.5q0 -45 -4 -71.5t-16 -74.5h-566q-6 -29 -12 -67.5t-6 -83.5q0 -168 77 -249t243 -81q43 0 75.5 5t81.5 22l-22 -115q-57 -14 -108.5 -21.5t-100.5 -7.5q-182 0 -294 91.5t-112 316.5zM389 690h410l4 37 q0 72 -44 113t-122 41q-106 0 -160.5 -53.5t-87.5 -137.5zM492 1413h180l33 -268h-127z" />
<glyph unicode="&#xe9;" horiz-adv-x="909" d="M184 385q0 248 116 430t345 182q135 0 219 -77.5t84 -198.5q0 -45 -4 -71.5t-16 -74.5h-566q-6 -29 -12 -67.5t-6 -83.5q0 -168 77 -249t243 -81q43 0 75.5 5t81.5 22l-22 -115q-57 -14 -108.5 -21.5t-100.5 -7.5q-182 0 -294 91.5t-112 316.5zM389 690h410l4 37 q0 72 -44 113t-122 41q-106 0 -160.5 -53.5t-87.5 -137.5zM607 1145l141 268h180l-192 -268h-129z" />
<glyph unicode="&#xea;" horiz-adv-x="909" d="M184 385q0 248 116 430t345 182q135 0 219 -77.5t84 -198.5q0 -45 -4 -71.5t-16 -74.5h-566q-6 -29 -12 -67.5t-6 -83.5q0 -168 77 -249t243 -81q43 0 75.5 5t81.5 22l-22 -115q-57 -14 -108.5 -21.5t-100.5 -7.5q-182 0 -294 91.5t-112 316.5zM389 690h410l4 37 q0 72 -44 113t-122 41q-106 0 -160.5 -53.5t-87.5 -137.5zM400 1145l231 268h152l129 -268h-125l-99 164l-163 -164h-125z" />
<glyph unicode="&#xeb;" horiz-adv-x="909" d="M184 385q0 248 116 430t345 182q135 0 219 -77.5t84 -198.5q0 -45 -4 -71.5t-16 -74.5h-566q-6 -29 -12 -67.5t-6 -83.5q0 -168 77 -249t243 -81q43 0 75.5 5t81.5 22l-22 -115q-57 -14 -108.5 -21.5t-100.5 -7.5q-182 0 -294 91.5t-112 316.5zM389 690h410l4 37 q0 72 -44 113t-122 41q-106 0 -160.5 -53.5t-87.5 -137.5zM394 1167l34 181h181l-35 -181h-180zM756 1167l35 181h180l-35 -181h-180z" />
<glyph unicode="&#xec;" horiz-adv-x="493" d="M174 0l191 975h145l-191 -975h-145zM285 1413h180l33 -268h-127z" />
<glyph unicode="&#xed;" horiz-adv-x="493" d="M174 0l191 975h145l-191 -975h-145zM420 1145l141 268h180l-192 -268h-129z" />
<glyph unicode="&#xee;" horiz-adv-x="493" d="M174 0l191 975h145l-191 -975h-145zM213 1145l231 268h152l129 -268h-125l-99 164l-163 -164h-125z" />
<glyph unicode="&#xef;" horiz-adv-x="493" d="M174 0l191 975h145l-191 -975h-145zM197 1167l34 181h181l-35 -181h-180zM559 1167l35 181h180l-35 -181h-180z" />
<glyph unicode="&#xf1;" d="M164 0l188 975h146l-39 -195l4 -4q76 111 145.5 166t198.5 55q90 0 143.5 -61.5t53.5 -157.5q0 -25 -4.5 -58.5t-14.5 -90.5l-123 -629h-145l112 582q18 88 19 163q0 53 -31 85t-82 32q-137 0 -230 -166t-132 -364l-64 -332h-145zM446 1145q25 96 55.5 160.5t106.5 64.5 q43 0 120 -54t97 -54q51 0 64 98h86q-16 -115 -63.5 -171t-104.5 -56q-39 0 -125 55t-88 55q-25 0 -40 -28.5t-22 -69.5h-86z" />
<glyph unicode="&#xf2;" horiz-adv-x="985" d="M176 336q0 262 121 461.5t381 199.5q156 0 241 -91t85 -261q0 -270 -120 -469t-372 -199q-156 0 -246 88.5t-90 270.5zM336 352q0 -109 45 -183.5t147 -74.5q170 0 243 160t73 360q0 119 -37 193t-148 74q-164 0 -243.5 -166t-79.5 -363zM531 1413h180l33 -268h-127z" />
<glyph unicode="&#xf3;" horiz-adv-x="985" d="M176 336q0 262 121 461.5t381 199.5q156 0 241 -91t85 -261q0 -270 -120 -469t-372 -199q-156 0 -246 88.5t-90 270.5zM336 352q0 -109 45 -183.5t147 -74.5q170 0 243 160t73 360q0 119 -37 193t-148 74q-164 0 -243.5 -166t-79.5 -363zM646 1145l141 268h180l-192 -268 h-129z" />
<glyph unicode="&#xf4;" horiz-adv-x="985" d="M176 336q0 262 121 461.5t381 199.5q156 0 241 -91t85 -261q0 -270 -120 -469t-372 -199q-156 0 -246 88.5t-90 270.5zM336 352q0 -109 45 -183.5t147 -74.5q170 0 243 160t73 360q0 119 -37 193t-148 74q-164 0 -243.5 -166t-79.5 -363zM439 1145l231 268h152l129 -268 h-125l-99 164l-163 -164h-125z" />
<glyph unicode="&#xf5;" horiz-adv-x="985" d="M176 336q0 262 121 461.5t381 199.5q156 0 241 -91t85 -261q0 -270 -120 -469t-372 -199q-156 0 -246 88.5t-90 270.5zM336 352q0 -109 45 -183.5t147 -74.5q170 0 243 160t73 360q0 119 -37 193t-148 74q-164 0 -243.5 -166t-79.5 -363zM428 1145q25 96 55.5 160.5 t106.5 64.5q43 0 120 -54t97 -54q51 0 64 98h86q-16 -115 -63.5 -171t-104.5 -56q-39 0 -125 55t-88 55q-25 0 -40 -28.5t-22 -69.5h-86z" />
<glyph unicode="&#xf6;" horiz-adv-x="985" d="M176 336q0 262 121 461.5t381 199.5q156 0 241 -91t85 -261q0 -270 -120 -469t-372 -199q-156 0 -246 88.5t-90 270.5zM336 352q0 -109 45 -183.5t147 -74.5q170 0 243 160t73 360q0 119 -37 193t-148 74q-164 0 -243.5 -166t-79.5 -363zM433 1167l34 181h181l-35 -181 h-180zM795 1167l35 181h180l-35 -181h-180z" />
<glyph unicode="&#xf7;" horiz-adv-x="1175" d="M201 436l24 125h944l-22 -125h-946zM479 0l35 186h186l-34 -186h-187zM629 776l37 187h186l-37 -187h-186z" />
<glyph unicode="&#xf8;" horiz-adv-x="985" d="M119 -61l123 159q-68 84 -68 238q0 262 122 461.5t382 199.5q127 0 207 -61l106 139l66 -45l-119 -153q66 -88 66 -232q0 -270 -120 -469t-372 -199q-131 0 -215 64l-113 -147zM334 352q0 -63 14 -114l447 581q-23 31 -53.5 46.5t-82.5 15.5q-166 0 -245.5 -165 t-79.5 -364zM387 158q49 -63 141 -64q170 0 243 160t73 360q0 37 -2 66t-11 57z" />
<glyph unicode="&#xf9;" d="M203 197q0 41 4 68.5t14 80.5l123 629h145l-114 -582q-6 -33 -11.5 -78t-5.5 -88q0 -53 31 -83.5t82 -30.5q135 0 228.5 165.5t131.5 364.5l68 332h145l-194 -975h-145l38 195l-4 4q-74 -109 -143.5 -165.5t-196.5 -56.5q-90 0 -143 61.5t-53 158.5zM549 1413h180 l33 -268h-127z" />
<glyph unicode="&#xfa;" d="M203 197q0 41 4 68.5t14 80.5l123 629h145l-114 -582q-6 -33 -11.5 -78t-5.5 -88q0 -53 31 -83.5t82 -30.5q135 0 228.5 165.5t131.5 364.5l68 332h145l-194 -975h-145l38 195l-4 4q-74 -109 -143.5 -165.5t-196.5 -56.5q-90 0 -143 61.5t-53 158.5zM644 1145l141 268 h180l-192 -268h-129z" />
<glyph unicode="&#xfb;" d="M203 197q0 41 4 68.5t14 80.5l123 629h145l-114 -582q-6 -33 -11.5 -78t-5.5 -88q0 -53 31 -83.5t82 -30.5q135 0 228.5 165.5t131.5 364.5l68 332h145l-194 -975h-145l38 195l-4 4q-74 -109 -143.5 -165.5t-196.5 -56.5q-90 0 -143 61.5t-53 158.5zM457 1145l231 268 h152l129 -268h-125l-99 164l-163 -164h-125z" />
<glyph unicode="&#xfc;" d="M203 197q0 41 4 68.5t14 80.5l123 629h145l-114 -582q-6 -33 -11.5 -78t-5.5 -88q0 -53 31 -83.5t82 -30.5q135 0 228.5 165.5t131.5 364.5l68 332h145l-194 -975h-145l38 195l-4 4q-74 -109 -143.5 -165.5t-196.5 -56.5q-90 0 -143 61.5t-53 158.5zM451 1167l34 181h181 l-35 -181h-180zM813 1167l35 181h180l-35 -181h-180z" />
<glyph unicode="&#xff;" horiz-adv-x="872" d="M162 -401l215 401l-176 975h149l139 -780l414 780h148l-740 -1376h-149zM375 1167l34 181h181l-35 -181h-180zM737 1167l35 181h180l-35 -181h-180z" />
<glyph unicode="&#x152;" horiz-adv-x="1781" d="M225 459q0 377 161 677t495 300q131 0 214 -58.5t130 -163.5l41 199h716l-26 -133h-559l-92 -475h534l-27 -133h-534l-104 -539h577l-27 -133h-733l37 190l-4 5q-61 -100 -158.5 -159t-234.5 -59q-225 0 -315.5 129.5t-90.5 352.5zM397 455q0 -178 67.5 -261t178.5 -83 q197 0 309.5 155.5t155.5 355t43 332.5q0 143 -60.5 246t-242.5 103q-172 0 -272.5 -154t-139.5 -350.5t-39 -343.5z" />
<glyph unicode="&#x153;" horiz-adv-x="1554" d="M182 336q0 262 122 461.5t380 199.5q180 0 283 -166q66 78 154.5 122t193.5 44q121 0 200.5 -77.5t79.5 -198.5q0 -106 -28 -205h-563q-14 -68 -15 -115q0 -307 297 -307q86 0 182 27l-22 -115q-57 -14 -108.5 -21.5t-100.5 -7.5q-117 0 -220.5 51.5t-139.5 155.5 q-59 -98 -146.5 -152.5t-210.5 -54.5q-156 0 -247 88.5t-91 270.5zM342 352q0 -109 45.5 -183.5t149.5 -74.5q170 0 242.5 160t72.5 360q0 121 -38 194t-148 73q-166 0 -245 -164t-79 -365zM1024 631h416q6 31 8 44t2 46q0 74 -39 117t-104 43q-121 0 -189.5 -71t-93.5 -179 z" />
<glyph unicode="&#x178;" d="M264 1413h170l228 -600l466 600h183l-596 -762l-127 -651h-156l127 651zM502 1605l34 181h181l-35 -181h-180zM864 1605l35 181h180l-35 -181h-180z" />
<glyph unicode="&#x2c6;" horiz-adv-x="593" d="M242 1145l231 268h152l129 -268h-125l-99 164l-163 -164h-125z" />
<glyph unicode="&#x2dc;" horiz-adv-x="593" d="M231 1145q25 96 55.5 160.5t106.5 64.5q43 0 120 -54t97 -54q51 0 64 98h86q-16 -115 -63.5 -171t-104.5 -56q-39 0 -125 55t-88 55q-25 0 -40 -28.5t-22 -69.5h-86z" />
<glyph unicode="&#x2000;" horiz-adv-x="950" />
<glyph unicode="&#x2001;" horiz-adv-x="1900" />
<glyph unicode="&#x2002;" horiz-adv-x="950" />
<glyph unicode="&#x2003;" horiz-adv-x="1900" />
<glyph unicode="&#x2004;" horiz-adv-x="633" />
<glyph unicode="&#x2005;" horiz-adv-x="475" />
<glyph unicode="&#x2006;" horiz-adv-x="316" />
<glyph unicode="&#x2007;" horiz-adv-x="316" />
<glyph unicode="&#x2008;" horiz-adv-x="237" />
<glyph unicode="&#x2009;" horiz-adv-x="380" />
<glyph unicode="&#x200a;" horiz-adv-x="105" />
<glyph unicode="&#x2010;" horiz-adv-x="833" d="M190 436l29 144h623l-27 -144h-625z" />
<glyph unicode="&#x2011;" horiz-adv-x="833" d="M190 436l29 144h623l-27 -144h-625z" />
<glyph unicode="&#x2012;" horiz-adv-x="833" d="M190 436l29 144h623l-27 -144h-625z" />
<glyph unicode="&#x2013;" d="M190 436l29 144h815l-28 -144h-816z" />
<glyph unicode="&#x2014;" horiz-adv-x="1402" d="M190 436l29 144h1192l-29 -144h-1192z" />
<glyph unicode="&#x2018;" horiz-adv-x="417" d="M289 975l153 438h140l-107 -438h-186z" />
<glyph unicode="&#x2019;" horiz-adv-x="417" d="M299 975l107 438h186l-154 -438h-139z" />
<glyph unicode="&#x201a;" horiz-adv-x="417" d="M61 -236l107 439h186l-153 -439h-140z" />
<glyph unicode="&#x201c;" horiz-adv-x="720" d="M289 975l153 438h140l-107 -438h-186zM592 975l153 438h140l-107 -438h-186z" />
<glyph unicode="&#x201d;" horiz-adv-x="720" d="M299 975l107 438h186l-154 -438h-139zM602 975l107 438h186l-154 -438h-139z" />
<glyph unicode="&#x201e;" horiz-adv-x="720" d="M66 -236l106 439h186l-153 -439h-139zM369 -236l106 439h187l-154 -439h-139z" />
<glyph unicode="&#x2022;" d="M283 707q0 152 107.5 261t262.5 109q154 0 262.5 -108.5t108.5 -261.5q0 -154 -108.5 -262.5t-262.5 -108.5q-152 0 -261 107.5t-109 263.5z" />
<glyph unicode="&#x2026;" horiz-adv-x="1402" d="M117 0l37 186h186l-37 -186h-186zM608 0l37 186h186l-36 -186h-187zM1100 0l37 186h186l-37 -186h-186z" />
<glyph unicode="&#x202f;" horiz-adv-x="380" />
<glyph unicode="&#x2039;" horiz-adv-x="454" d="M164 500l225 387h150l-203 -387l53 -379h-149z" />
<glyph unicode="&#x203a;" horiz-adv-x="454" d="M115 121l202 387l-55 379h150l77 -379l-225 -387h-149z" />
<glyph unicode="&#x205f;" horiz-adv-x="475" />
<glyph unicode="&#x2122;" horiz-adv-x="1251" d="M272 1327v86h387v-86h-149v-508h-88v508h-150zM729 819v594h162l100 -467l103 467h163v-594h-88v537l-122 -537h-109l-117 537l-4 -537h-88z" />
<glyph unicode="&#xe000;" horiz-adv-x="972" d="M0 0v973h973v-973h-973z" />
<glyph unicode="&#xfb01;" horiz-adv-x="1099" d="M219 0l166 860h-162l23 115h162l18 98q35 182 119 272.5t278 90.5q86 0 158 -19l-23 -123q-43 12 -74.5 18.5t-78.5 6.5q-117 0 -163 -63.5t-69 -176.5l-20 -104h276l-22 -115h-277l-165 -860h-146zM780 0l191 975h145l-190 -975h-146zM999 1229l37 184h185l-37 -184 h-185z" />
<glyph unicode="&#xfb02;" horiz-adv-x="1099" d="M219 0l166 860h-162l23 115h162l18 98q35 182 119 272.5t278 90.5q86 0 158 -19l-23 -123q-43 12 -74.5 18.5t-78.5 6.5q-117 0 -163 -63.5t-69 -176.5l-20 -104h276l-22 -115h-277l-165 -860h-146zM780 0l275 1413h145l-274 -1413h-146z" />
</font>
</defs>
</svg>
